<?xml version="1.0" encoding="UTF-8" standalone="no"?>
<svg
   xmlns:dc="http://purl.org/dc/elements/1.1/"
   xmlns:cc="http://creativecommons.org/ns#"
   xmlns:rdf="http://www.w3.org/1999/02/22-rdf-syntax-ns#"
   xmlns:svg="http://www.w3.org/2000/svg"
   xmlns="http://www.w3.org/2000/svg"
   id="svg8"
   version="1.1"
   viewBox="0 0 210 297"
   height="297mm"
   width="210mm">
  <defs
     id="defs2" />
  <metadata
     id="metadata5">
    <rdf:RDF>
      <cc:Work
         rdf:about="">
        <dc:format>image/svg+xml</dc:format>
        <dc:type
           rdf:resource="http://purl.org/dc/dcmitype/StillImage" />
        <dc:title></dc:title>
      </cc:Work>
    </rdf:RDF>
  </metadata>
  <g
     id="layer1">
    <path
       id="path825"
       d="m 21.546411,43.754081 c -0.631305,1.006844 -0.88329,2.770733 -1.512139,4.156805 -0.628849,1.386071 -1.636785,2.394007 -2.392473,3.024497 -0.755688,0.63049 -1.259656,0.882474 -1.513227,1.133928 -0.253572,0.251455 -0.253572,0.503439 -0.504539,1.007204 -0.250967,0.503766 -0.754935,1.259718 -1.007936,1.889881 -0.253002,0.630163 -0.253002,1.134131 -0.253002,2.142067 0,1.007937 0,2.519843 0,3.52778 0,1.007937 0,1.511905 0,1.88988 0,0.377976 0,0.62996 -0.251346,1.385639 -0.251345,0.755679 -0.755313,2.015599 -1.007936,3.275793 -0.252623,1.260195 -0.252623,2.520117 -0.252623,4.409998 0,1.88988 0,4.409721 0,6.80357 0,2.39385 0,4.661707 0,5.921628 0,1.259921 0,1.511904 0,1.763888 0,0.251984 0,0.503968 0.127315,0.631283 0.127315,0.127315 0.379299,0.127315 0.629961,0.253307 0.250661,0.125992 0.502645,0.377976 0.754629,0.62996 0.251983,0.251983 0.503968,0.503969 0.62996,0.754631 0.125992,0.250661 0.125992,0.502645 0.253307,0.629959 0.127315,0.127315 0.379299,0.127315 0.503968,0.251984 0.12467,0.124669 0.12467,0.376653 0.12467,0.754629 0,0.377976 0,0.881946 0.127315,1.135253 0.127315,0.253307 0.379299,0.253307 0.503968,0.377976 0.124669,0.124669 0.124669,0.376653 0.251984,0.503967 0.127315,0.127315 0.379299,0.127315 0.503968,0.62996 0.12467,0.502645 0.12467,1.510583 0.12467,4.660382 0,3.1498 0,8.44147 0,11.96925 0,3.52778 0,5.29167 0,6.55159 0,1.25992 0,2.01587 0.12599,2.52116 0.12599,0.50529 0.377978,0.75728 0.50397,1.13393 0.125992,0.37665 0.125992,0.88062 0.253307,1.13392 0.127315,0.25331 0.379299,0.25331 0.503968,0.88195 0.124669,0.62864 0.124669,1.88856 0.124669,3.77844 0,1.88988 0,4.40972 0,6.17361 0,1.76389 0,2.77183 -0.12467,3.40179 -0.124669,0.62996 -0.376652,0.88194 -0.503967,1.13393 -0.127315,0.25198 -0.127315,0.50396 -0.251984,0.75595 -0.124669,0.25198 -0.376654,0.50397 -0.503969,0.75595 -0.127314,0.25198 -0.127314,0.50397 -0.251984,0.63128 -0.124669,0.12732 -0.376653,0.12732 -0.503968,0.25199 -0.127315,0.12467 -0.127315,0.37665 -0.127315,0.75462 0,0.37798 0,0.88195 -0.124669,1.13525 -0.124669,0.25331 -0.376653,0.25331 -0.754631,0.50397 -0.377978,0.25067 -0.881946,0.75464 -1.385912,1.00794 -0.503967,0.25331 -1.007936,0.25331 -1.261243,0.37798 -0.253307,0.12467 -0.253307,0.37665 -0.253307,1.38459 0,1.00794 0,2.77183 0,4.7877 0,2.01587 0,4.28373 0,5.54365 0,1.25992 0,1.5119 0,1.76389 0,0.25198 0,0.50396 0.127315,0.63128 0.127315,0.12731 0.379299,0.12731 0.503968,0.62996 0.12467,0.50265 0.12467,1.51058 0.25066,2.14186 0.12599,0.63129 0.377978,0.88328 0.50397,1.25993 0.125992,0.37665 0.125992,0.88062 0.253307,1.13393 0.127315,0.2533 0.379299,0.2533 0.503968,0.62996 0.124669,0.37665 0.124669,1.1326 0.124669,2.7705 0,1.63789 0,4.15774 0,5.92163 0,1.76388 0,2.77182 0.125992,3.4031 0.125992,0.63129 0.377973,0.88327 0.503967,1.38591 0.125994,0.50265 0.125994,1.2586 0.37798,1.88989 0.251985,0.63128 0.755948,1.13525 1.007934,1.5119 0.251985,0.37665 0.251985,0.62864 0.377978,0.88195 0.125992,0.2533 0.377975,0.50529 0.503967,0.75595 0.125992,0.25066 0.125992,0.50264 0.251984,0.75595 0.125992,0.25331 0.377977,0.50529 0.503969,0.75595 0.125991,0.25066 0.125991,0.50265 0.253306,0.62997 0.127315,0.12731 0.379299,0.12731 0.503968,0.25198 0.12467,0.12467 0.12467,0.37665 0.377977,0.50397 0.253307,0.12731 0.757275,0.12731 1.133929,0.2533 0.376654,0.12599 0.628637,0.37798 1.133928,0.50397 0.505291,0.12599 1.261243,0.12599 2.395171,0.12599 1.133929,0 2.645833,0 3.527778,0 0.881945,0 1.133929,0 1.385913,0 0.251984,0 0.503968,0 0.628637,-0.37929 0.124669,-0.3793 0.124669,-1.13526 0.124669,-3.5291 0,-2.39385 0,-6.4256 0,-9.44941 0,-3.02381 0,-5.03968 0,-6.42559 0,-1.38592 0,-2.14187 -0.125992,-2.64452 -0.125992,-0.50264 -0.377975,-0.75463 -0.503967,-1.13392 -0.125993,-0.3793 -0.125993,-0.88327 -0.251987,-1.25993 -0.125994,-0.37665 -0.377974,-0.62863 -0.503966,-1.13393 -0.125992,-0.50529 -0.125992,-1.26124 -0.251984,-1.76389 -0.125992,-0.50264 -0.377974,-0.75463 -0.503966,-1.25991 -0.125993,-0.50529 -0.125993,-1.26125 -0.250664,-1.6379 -0.12467,-0.37665 -0.376654,-0.37665 -0.503969,-0.62996 -0.127314,-0.25331 -0.127314,-0.75728 -0.251983,-1.00794 -0.124669,-0.25066 -0.376653,-0.25066 -0.503968,-0.37797 -0.127315,-0.12732 -0.127315,-0.3793 -0.127315,-1.00926 0,-0.62996 0,-1.6379 0,-6.17361 0,-4.53572 0,-12.59921 0,-17.89087 0,-5.29167 0,-7.81152 0,-9.7014 0,-1.88988 0,-3.1498 0.127315,-3.90575 0.127315,-0.75595 0.379303,-1.00794 0.50397,-1.6379 0.124667,-0.62996 0.124667,-1.63789 0.124667,-2.77182 0,-1.13393 0,-2.39385 0,-3.27579 0,-0.88195 0,-1.38592 0.126787,-1.89015 0.126787,-0.50424 0.378767,-1.0082 0.630752,-1.51217 0.251985,-0.50397 0.50397,-1.00794 0.629168,-1.38565 0.125198,-0.37771 0.125198,-0.629694 0.125198,-1.385647 0,-0.755953 0,-2.015873 0,-3.023809 0,-1.007937 0,-1.763889 0.253571,-2.267328 0.253572,-0.503439 0.75754,-0.755424 1.134458,-1.260186 0.376918,-0.504762 0.628903,-1.260713 1.007938,-1.763888 0.379035,-0.503175 0.883002,-0.755159 1.133398,-1.007672 0.250396,-0.252514 0.250396,-0.504498 0.250396,-1.386442 0,-0.881945 0,-2.393849 0,-3.527777 0,-1.133929 0,-1.889881 -0.124669,-2.266535 -0.124669,-0.376654 -0.376653,-0.376654 -0.881638,-0.628434 -0.504986,-0.25178 -1.260939,-0.755749 -1.891204,-1.25992 C 28.978174,80.29365 28.474206,79.789681 28.097552,79.537697 27.720898,79.285713 27.468914,79.285713 27.341599,79.032406 27.214285,78.779099 27.214285,78.275131 27.089616,78.02447 26.964947,77.773809 26.712963,77.773809 26.459656,77.647817 26.20635,77.521825 25.954365,77.269839 25.702381,77.017855 25.450397,76.765871 25.198412,76.513888 25.07242,76.260581 24.946428,76.007274 24.946428,75.75529 24.820436,75.504629 24.694444,75.253968 24.44246,75.001984 24.316468,74.748676 c -0.125992,-0.253308 -0.125992,-0.505292 -0.250662,-0.629961 -0.124669,-0.124669 -0.376652,-0.124669 -0.503967,-0.629959 -0.127315,-0.505291 -0.127315,-1.513229 -0.127315,-2.773148 0,-1.25992 0,-2.771826 0.253307,-3.779763 0.253307,-1.007936 0.757275,-1.511904 1.134317,-2.26809 0.377043,-0.756187 0.629027,-1.764123 0.75463,-2.393849 0.125603,-0.629726 0.125603,-0.881713 0.252389,-1.259953 0.126785,-0.37824 0.378769,-0.882208 0.503968,-1.637897 0.125198,-0.755688 0.125198,-1.763623 0.125198,-2.141599 0,-0.377976 0,-0.125992 0,-0.377976 0,-0.251984 0,-1.007938 0,-2.267858 0,-1.259921 0,-3.023808 0,-4.787698 0,-1.76389 0,-3.527777 0,-4.535714 0,-1.007937 0,-1.259921 -0.251455,-1.510317 -0.251454,-0.250396 -0.755423,-0.50238 -1.007937,-0.755953 -0.252513,-0.253573 -0.252513,-0.505556 -0.377182,-0.630225 -0.124669,-0.124669 -0.376653,-0.124669 -1.00638,9.34e-4 -0.629727,0.125603 -1.637663,0.377588 -2.268968,1.384431 z"
       style="fill:none;stroke:#000000;stroke-width:0.26458332px;stroke-linecap:butt;stroke-linejoin:miter;stroke-opacity:1" />
  </g>
</svg>
