<!--?xml version="1.0" encoding="UTF-8" standalone="no"?-->
<!-- Created with Inkscape (http://www.inkscape.org/) -->

<svg xmlns:dc="http://purl.org/dc/elements/1.1/" xmlns:cc="http://creativecommons.org/ns#" xmlns:rdf="http://www.w3.org/1999/02/22-rdf-syntax-ns#" xmlns:svg="http://www.w3.org/2000/svg" xmlns="http://www.w3.org/2000/svg" xmlns:xlink="http://www.w3.org/1999/xlink" xmlns:sodipodi="http://sodipodi.sourceforge.net/DTD/sodipodi-0.dtd" xmlns:inkscape="http://www.inkscape.org/namespaces/inkscape" version="1.1" width="330" height="370" id="svg2828" inkscape:version="0.92.2 (5c3e80d, 2017-08-06)" sodipodi:docname="heart.svg" style="">
  <metadata id="metadata244">
    <rdf:rdf>
      <cc:work rdf:about="">
        <dc:format>image/svg+xml</dc:format>
        <dc:type rdf:resource="http://purl.org/dc/dcmitype/StillImage"></dc:type>
        <dc:title></dc:title>
      </cc:work>
    </rdf:rdf>
  </metadata>
  <sodipodi:namedview pagecolor="#ffffff" bordercolor="#666666" borderopacity="1" objecttolerance="10" gridtolerance="10" guidetolerance="10" inkscape:pageopacity="0" inkscape:pageshadow="2" inkscape:window-width="1920" inkscape:window-height="1001" id="namedview242" showgrid="false" inkscape:zoom="1.3891892" inkscape:cx="217.82371" inkscape:cy="142.28686" inkscape:window-x="-9" inkscape:window-y="-9" inkscape:window-maximized="1" inkscape:current-layer="g3393"></sodipodi:namedview>
  <defs id="defs2830">
    <linearGradient id="linearGradient3911">
      <stop id="stop3913" style="stop-color:#fd1e32;stop-opacity:1" offset="0"></stop>
      <stop id="stop3915" style="stop-color:#c80214;stop-opacity:1" offset="1"></stop>
    </linearGradient>
    <linearGradient id="linearGradient3887">
      <stop id="stop3889" style="stop-color:#fd1e32;stop-opacity:1" offset="0"></stop>
      <stop id="stop3891" style="stop-color:#8d010e;stop-opacity:1" offset="1"></stop>
    </linearGradient>
    <linearGradient id="linearGradient3849">
      <stop id="stop3851" style="stop-color:#bd292f;stop-opacity:1" offset="0"></stop>
      <stop id="stop3853" style="stop-color:#4c1014;stop-opacity:1" offset="1"></stop>
    </linearGradient>
    <linearGradient id="linearGradient3839">
      <stop id="stop3841" style="stop-color:#a4c0d1;stop-opacity:1" offset="0"></stop>
      <stop id="stop3843" style="stop-color:#345468;stop-opacity:0.98198199" offset="1"></stop>
    </linearGradient>
    <linearGradient id="linearGradient10397">
      <stop id="stop10399" style="stop-color:#eeb4b4;stop-opacity:1" offset="0"></stop>
      <stop id="stop10401" style="stop-color:#efbbbb;stop-opacity:0" offset="1"></stop>
    </linearGradient>
    <linearGradient id="linearGradient10313">
      <stop id="stop10315" style="stop-color:#dd0008;stop-opacity:1" offset="0"></stop>
      <stop id="stop10321" style="stop-color:#fa555b;stop-opacity:1" offset="0.39516726"></stop>
      <stop id="stop10323" style="stop-color:#f13e45;stop-opacity:1" offset="0.53354573"></stop>
      <stop id="stop10317" style="stop-color:#e60009;stop-opacity:1" offset="1"></stop>
    </linearGradient>
    <linearGradient id="linearGradient10158">
      <stop id="stop10160" style="stop-color:#bbd7ef;stop-opacity:1" offset="0"></stop>
      <stop id="stop10162" style="stop-color:#bbd7ef;stop-opacity:0" offset="1"></stop>
    </linearGradient>
    <linearGradient id="linearGradient10146">
      <stop id="stop10148" style="stop-color:#cfe3f4;stop-opacity:1" offset="0"></stop>
      <stop id="stop10150" style="stop-color:#bbd7ef;stop-opacity:0" offset="1"></stop>
    </linearGradient>
    <linearGradient id="linearGradient10125">
      <stop id="stop10127" style="stop-color:#a4c4e0;stop-opacity:1" offset="0"></stop>
      <stop id="stop10129" style="stop-color:#a4c4e0;stop-opacity:0" offset="1"></stop>
    </linearGradient>
    <linearGradient id="linearGradient4335">
      <stop id="stop4337" style="stop-color:#bbd7ef;stop-opacity:1" offset="0"></stop>
      <stop id="stop4339" style="stop-color:#bbd7ef;stop-opacity:0" offset="1"></stop>
    </linearGradient>
    <linearGradient id="linearGradient4206">
      <stop id="stop4208" style="stop-color:#92bcd9;stop-opacity:1" offset="0"></stop>
      <stop id="stop4214" style="stop-color:#356f95;stop-opacity:1" offset="0.5"></stop>
      <stop id="stop4210" style="stop-color:#cce2ed;stop-opacity:1" offset="1"></stop>
    </linearGradient>
    <linearGradient id="linearGradient3852">
      <stop id="stop3854" style="stop-color:#f90113;stop-opacity:1" offset="0"></stop>
      <stop id="stop3856" style="stop-color:#ffbabf;stop-opacity:1" offset="1"></stop>
    </linearGradient>
    <linearGradient id="linearGradient3844">
      <stop id="stop3846" style="stop-color:#ff3549;stop-opacity:1" offset="0"></stop>
      <stop id="stop3848" style="stop-color:#8a000e;stop-opacity:1" offset="1"></stop>
    </linearGradient>
    <linearGradient id="linearGradient3732">
      <stop id="stop3734" style="stop-color:#052e6e;stop-opacity:1" offset="0"></stop>
      <stop id="stop3736" style="stop-color:#052e6e;stop-opacity:0" offset="1"></stop>
    </linearGradient>
    <linearGradient id="linearGradient3668">
      <stop id="stop3670" style="stop-color:#285f86;stop-opacity:1" offset="0"></stop>
      <stop id="stop3680" style="stop-color:#356d95;stop-opacity:1" offset="0.38035485"></stop>
      <stop id="stop3678" style="stop-color:#4b89b6;stop-opacity:1" offset="0.66677821"></stop>
      <stop id="stop3672" style="stop-color:#285e87;stop-opacity:1" offset="1"></stop>
    </linearGradient>
    <linearGradient id="linearGradient3660">
      <stop id="stop3662" style="stop-color:#759cdb;stop-opacity:1" offset="0"></stop>
      <stop id="stop3768" style="stop-color:#34578d;stop-opacity:1" offset="0.5"></stop>
      <stop id="stop3664" style="stop-color:#052e6e;stop-opacity:1" offset="1"></stop>
    </linearGradient>
    <linearGradient id="linearGradient3908">
      <stop id="stop3910" style="stop-color:#1480cd;stop-opacity:1" offset="0"></stop>
      <stop id="stop3912" style="stop-color:#093d60;stop-opacity:1" offset="1"></stop>
    </linearGradient>
    <linearGradient id="linearGradient3886">
      <stop id="stop3888" style="stop-color:#157bc2;stop-opacity:1" offset="0"></stop>
      <stop id="stop3894" style="stop-color:#359ee8;stop-opacity:1" offset="0.5"></stop>
      <stop id="stop3890" style="stop-color:#116199;stop-opacity:1" offset="1"></stop>
    </linearGradient>
    <linearGradient id="linearGradient3823">
      <stop id="stop3825" style="stop-color:#116dae;stop-opacity:1" offset="0"></stop>
      <stop id="stop3831" style="stop-color:#1782ce;stop-opacity:1" offset="0.34282818"></stop>
      <stop id="stop3827" style="stop-color:#1066a3;stop-opacity:1" offset="1"></stop>
    </linearGradient>
    <filter x="-0.082901634" y="-0.18650614" width="1.1658033" height="1.3730123" color-interpolation-filters="sRGB" id="filter3846">
      <feGaussianBlur stdDeviation="0.51196698" id="feGaussianBlur3848"></feGaussianBlur>
    </filter>
    <filter x="-0.17833833" y="-0.41254702" width="1.3566767" height="1.8250941" color-interpolation-filters="sRGB" id="filter3882">
      <feGaussianBlur stdDeviation="0.18989019" id="feGaussianBlur3884"></feGaussianBlur>
    </filter>
    <filter x="-0.20645539" y="-0.33563039" width="1.4129108" height="1.6712608" color-interpolation-filters="sRGB" id="filter3764">
      <feGaussianBlur stdDeviation="2.7872198" id="feGaussianBlur3766"></feGaussianBlur>
    </filter>
    <filter color-interpolation-filters="sRGB" id="filter3788">
      <feGaussianBlur stdDeviation="0.49117215" id="feGaussianBlur3790"></feGaussianBlur>
    </filter>
    <filter x="-0.097695656" y="-0.28946856" width="1.1953913" height="1.5789371" color-interpolation-filters="sRGB" id="filter3814">
      <feGaussianBlur stdDeviation="1.1630436" id="feGaussianBlur3816"></feGaussianBlur>
    </filter>
    <filter x="-1.0672392" y="-0.05189709" width="3.1344783" height="1.1037942" color-interpolation-filters="sRGB" id="filter3824">
      <feGaussianBlur stdDeviation="0.72275458" id="feGaussianBlur3826"></feGaussianBlur>
    </filter>
    <filter x="-0.095696725" y="-0.11471852" width="1.1913935" height="1.229437" color-interpolation-filters="sRGB" id="filter3744">
      <feGaussianBlur stdDeviation="2.6752717" id="feGaussianBlur3746"></feGaussianBlur>
    </filter>
    <filter x="-0.17845786" y="-0.10940888" width="1.3569157" height="1.2188178" color-interpolation-filters="sRGB" id="filter3760">
      <feGaussianBlur stdDeviation="1.4412817" id="feGaussianBlur3762"></feGaussianBlur>
    </filter>
    <filter x="-0.2349758" y="-0.1294765" width="1.4699516" height="1.258953" color-interpolation-filters="sRGB" id="filter3815">
      <feGaussianBlur stdDeviation="0.94409948" id="feGaussianBlur3817"></feGaussianBlur>
    </filter>
    <filter color-interpolation-filters="sRGB" id="filter3860">
      <feGaussianBlur id="feGaussianBlur3862" result="result6" stdDeviation="1.5"></feGaussianBlur>
      <feComposite in2="result6" operator="atop" in="SourceGraphic" result="result8" id="feComposite3864"></feComposite>
      <feComposite in2="SourceAlpha" operator="atop" in="result8" result="result9" id="feComposite3866"></feComposite>
    </filter>
    <filter color-interpolation-filters="sRGB" id="filter3884">
      <feGaussianBlur id="feGaussianBlur3886" result="result6" stdDeviation="1.5"></feGaussianBlur>
      <feComposite in2="result6" operator="atop" in="SourceGraphic" result="result8" id="feComposite3888"></feComposite>
      <feComposite in2="SourceAlpha" operator="atop" in="result8" result="result9" id="feComposite3890"></feComposite>
    </filter>
    <filter color-interpolation-filters="sRGB" id="filter3855">
      <feGaussianBlur id="feGaussianBlur3857" stdDeviation="7.1521428571428567" result="result8"></feGaussianBlur>
      <feOffset id="feOffset3859" dx="-1.1627906976744207" dy="-0.58139534883721034" result="result11"></feOffset>
      <feComposite in2="result11" operator="in" in="SourceGraphic" result="result6" id="feComposite3861"></feComposite>
      <feFlood id="feFlood3863" result="result10" in="result6" flood-opacity="1" flood-color="rgb(0,0,0)"></feFlood>
      <feBlend in2="result10" mode="normal" in="result6" result="result12" id="feBlend3865"></feBlend>
      <feComposite in2="SourceGraphic" operator="in" result="result2" id="feComposite3867"></feComposite>
    </filter>
    <filter color-interpolation-filters="sRGB" id="filter10361">
      <feGaussianBlur result="result8" stdDeviation="2.9508823529411763" id="feGaussianBlur10363"></feGaussianBlur>
      <feOffset result="result11" dy="0.60240963855422436" dx="-1.2048192771084376" id="feOffset10365"></feOffset>
      <feComposite in2="result11" operator="in" in="SourceGraphic" result="result6" id="feComposite10367"></feComposite>
      <feFlood flood-color="rgb(0,0,0)" flood-opacity="0.80473372781065089" in="result6" result="result10" id="feFlood10369"></feFlood>
      <feBlend in2="result10" mode="normal" in="result6" result="result12" id="feBlend10371"></feBlend>
      <feComposite in2="SourceGraphic" operator="in" result="result2" id="feComposite10373"></feComposite>
    </filter>
    <linearGradient x1="-161.19922" y1="440.98727" x2="-127.55545" y2="416.58408" id="linearGradient4388" xlink:href="#linearGradient10313" gradientUnits="userSpaceOnUse" gradientTransform="translate(108.50736,426.96867)"></linearGradient>
    <radialGradient cx="-182.07213" cy="443.09494" r="30.874434" fx="-182.07213" fy="443.09494" id="radialGradient4390" xlink:href="#linearGradient3839" gradientUnits="userSpaceOnUse" gradientTransform="matrix(0.99911004,0.04217973,-0.01969009,0.46639855,117.0699,668.17601)"></radialGradient>
    <linearGradient x1="-262.12952" y1="528.74921" x2="-235.62317" y2="524.70862" id="linearGradient4392" xlink:href="#linearGradient3823" gradientUnits="userSpaceOnUse" gradientTransform="translate(108.50736,426.96867)"></linearGradient>
    <linearGradient x1="-262.47174" y1="532.34082" x2="-169.6517" y2="459.39038" id="linearGradient4394" xlink:href="#linearGradient4206" gradientUnits="userSpaceOnUse" gradientTransform="translate(108.50736,426.96867)"></linearGradient>
    <linearGradient x1="-254.31444" y1="362.64532" x2="-253.7424" y2="389.28387" id="linearGradient4398" xlink:href="#linearGradient3886" gradientUnits="userSpaceOnUse" gradientTransform="translate(108.50736,426.96867)"></linearGradient>
    <linearGradient x1="-277.53433" y1="385.78778" x2="-234.36047" y2="385.78778" id="linearGradient4400" xlink:href="#linearGradient3823" gradientUnits="userSpaceOnUse" gradientTransform="translate(108.50736,426.96867)"></linearGradient>
    <linearGradient x1="-261.57535" y1="341.022" x2="-261.35336" y2="352.26501" id="linearGradient4402" xlink:href="#linearGradient3908" gradientUnits="userSpaceOnUse"></linearGradient>
    <radialGradient cx="-250.60498" cy="458.42621" r="32.464287" fx="-250.60498" fy="458.42621" id="radialGradient4404" xlink:href="#linearGradient3668" gradientUnits="userSpaceOnUse" gradientTransform="matrix(1.3655984,-0.2294717,0.29529699,1.7573282,64.825539,22.113412)"></radialGradient>
    <linearGradient x1="-257.78842" y1="397.71011" x2="-256.29114" y2="437.58679" id="linearGradient4406" xlink:href="#linearGradient3732" gradientUnits="userSpaceOnUse"></linearGradient>
    <linearGradient x1="-299.38644" y1="386.20148" x2="-295.07785" y2="386.20148" id="linearGradient4408" xlink:href="#linearGradient3908" gradientUnits="userSpaceOnUse"></linearGradient>
    <linearGradient x1="-275.58932" y1="462.80075" x2="-234.72444" y2="462.80075" id="linearGradient4410" xlink:href="#linearGradient3660" gradientUnits="userSpaceOnUse" gradientTransform="translate(-1.0101525,1.5152288)"></linearGradient>
    <linearGradient x1="-291.36609" y1="384.4585" x2="-304.7066" y2="391.26938" id="linearGradient4412" xlink:href="#linearGradient3844" gradientUnits="userSpaceOnUse"></linearGradient>
    <linearGradient x1="-304.7066" y1="391.26938" x2="-291.36609" y2="384.4585" id="linearGradient4414" xlink:href="#linearGradient3852" gradientUnits="userSpaceOnUse"></linearGradient>
    <linearGradient x1="-217.70796" y1="524.14111" x2="-216.00764" y2="525.64563" id="linearGradient4416" xlink:href="#linearGradient10158" gradientUnits="userSpaceOnUse" gradientTransform="translate(108.50736,426.96867)"></linearGradient>
    <linearGradient x1="-201.06868" y1="520.02148" x2="-199.36282" y2="522.38574" id="linearGradient4418" xlink:href="#linearGradient10125" gradientUnits="userSpaceOnUse" gradientTransform="translate(108.50736,426.96867)"></linearGradient>
    <linearGradient x1="-190.72549" y1="505.38132" x2="-187.68719" y2="508.97986" id="linearGradient4420" xlink:href="#linearGradient4335" gradientUnits="userSpaceOnUse" gradientTransform="translate(108.50736,426.96867)"></linearGradient>
    <linearGradient x1="-207.20857" y1="524.51001" x2="-206.33501" y2="526.65936" id="linearGradient4422" xlink:href="#linearGradient10146" gradientUnits="userSpaceOnUse" gradientTransform="translate(108.50736,426.96867)"></linearGradient>
    <linearGradient x1="-190.72549" y1="505.38132" x2="-187.68719" y2="508.97986" id="linearGradient4424" xlink:href="#linearGradient10397" gradientUnits="userSpaceOnUse" gradientTransform="matrix(0.63438262,0.46502105,-0.46502105,0.63438262,333.89123,688.38649)"></linearGradient>
    <linearGradient x1="-217.70796" y1="524.14111" x2="-216.00764" y2="525.64563" id="linearGradient4426" xlink:href="#linearGradient10397" gradientUnits="userSpaceOnUse" gradientTransform="matrix(0.4341229,0.57480894,-0.57480894,0.4341229,345.30459,807.74921)"></linearGradient>
    <linearGradient x1="-207.20857" y1="524.51001" x2="-206.33501" y2="526.65936" id="linearGradient4428" xlink:href="#linearGradient10397" gradientUnits="userSpaceOnUse" gradientTransform="matrix(0.51749864,0.42607176,-0.42607176,0.51749864,294.37248,730.27094)"></linearGradient>
    <linearGradient x1="-145.57167" y1="418.36038" x2="-142.00774" y2="416.21106" id="linearGradient4430" xlink:href="#linearGradient3849" gradientUnits="userSpaceOnUse"></linearGradient>
    <linearGradient x1="-145.78661" y1="417.93051" x2="-140.71814" y2="416.21106" id="linearGradient4432" xlink:href="#linearGradient3849" gradientUnits="userSpaceOnUse"></linearGradient>
    <linearGradient x1="-145.57167" y1="418.36038" x2="-142.00774" y2="416.21106" id="linearGradient4434" xlink:href="#linearGradient3849" gradientUnits="userSpaceOnUse"></linearGradient>
    <linearGradient x1="-170.9549" y1="366.21991" x2="-142.95439" y2="406.58755" id="linearGradient4436" xlink:href="#linearGradient3886" gradientUnits="userSpaceOnUse" gradientTransform="translate(108.50736,426.96867)"></linearGradient>
    <radialGradient cx="-158.69832" cy="446.85901" r="5.3322368" fx="-158.69832" fy="446.85901" id="radialGradient4438" xlink:href="#linearGradient3911" gradientUnits="userSpaceOnUse" gradientTransform="matrix(1,0,0,1.5528576,108.50736,179.81105)"></radialGradient>
    <radialGradient cx="-169.0965" cy="466.17499" r="4.3568373" fx="-169.0965" fy="466.17499" id="radialGradient4440" xlink:href="#linearGradient3911" gradientUnits="userSpaceOnUse" gradientTransform="matrix(1,0,0,2.0333339,108.81132,-53.225988)"></radialGradient>
    <linearGradient x1="-110.30159" y1="408.99973" x2="-114.31379" y2="411.03766" id="linearGradient4442" xlink:href="#linearGradient3887" gradientUnits="userSpaceOnUse"></linearGradient>
    <linearGradient x1="-110.30159" y1="408.99973" x2="-114.31379" y2="411.03766" id="linearGradient4444" xlink:href="#linearGradient3887" gradientUnits="userSpaceOnUse"></linearGradient>
    <linearGradient inkscape:collect="always" xlink:href="#linearGradient3852" id="linearGradient3320" gradientUnits="userSpaceOnUse" x1="-304.7066" y1="391.26938" x2="-291.36609" y2="384.4585" gradientTransform="matrix(-1.1673599,-1.6064594,1.4338933,-1.2013608,-769.11728,30.03947)"></linearGradient>
  </defs>
  <g style="fill:#ff80e5" id="g6123" transform="matrix(0.84012041,-0.01394586,-0.01394586,-0.84012041,347.11747,773.97043)"></g>
  <g id="g3393">
    <path d="m 225.6455,156.16642 c 9.67195,-14.83033 21.65601,-16.00482 21.65601,-16.00482 5.15837,0.6448 3.43891,6.23303 3.43891,6.23303 0,0 -15.22331,5.1215 -22.10115,15.86812 z" id="path4231" style="opacity:0.75;fill:none;fill-opacity:1;stroke:#f70000;stroke-width:1px;stroke-linecap:butt;stroke-linejoin:miter;stroke-opacity:1" inkscape:connector-curvature="0" class="hGRtqDbX_0"></path>
    <path d="m 253.42707,325.86313 c 37.39823,-9.45702 25.89935,-57.17202 25.89935,-57.17202 0,0 5.05669,-75.43862 -47.36148,-115.67307 l 23.80032,37.95584 17.11319,59.23305 -7.73756,58.89145 -13.86314,12.03625 z" id="path4233" style="opacity:0.75;fill:none;fill-opacity:1;stroke:#c30000;stroke-width:1px;stroke-linecap:butt;stroke-linejoin:miter;stroke-opacity:1" inkscape:connector-curvature="0" class="hGRtqDbX_1"></path>
    <path d="m 193.0406,346.91383 c 2.51809,-86.58086 -13.6577,-229.53506 -13.6577,-229.53506 l 33.09957,-5.3733 c 0,0 19.72552,221.75396 13.0384,233.91236 0,12.0669 -32.48027,15.4744 -32.48027,0.996 z" id="path4235" style="opacity:0.75;fill:none;fill-opacity:1;stroke:#8a020c;stroke-width:1px;stroke-linecap:butt;stroke-linejoin:miter;stroke-opacity:1" inkscape:connector-curvature="0" class="hGRtqDbX_2"></path>
    <path d="m 210.54808,180.56887 -10.74661,26.6516 -5.15838,29.66066 46.85524,74.79644 31.38012,-21.9231 -9.45702,-79.52495 -16.33486,-27.94119 -9.02715,15.47512 -1.2896,15.47513 -14.18553,-2.14933 -2.57919,-21.92309 z" id="path4237" style="opacity:0.75;fill:none;fill-opacity:1;stroke:#000000;stroke-width:1px;stroke-linecap:butt;stroke-linejoin:miter;stroke-opacity:1;filter:url(#filter3855)" inkscape:connector-curvature="0" class="hGRtqDbX_3"></path>
    <path d="m 232.75166,162.86996 c 12.01781,-13.00221 24.73319,-10.92386 24.73319,-10.92386 4.97768,1.49911 0.30525,8.3327 0.30525,8.3327 0,0 -14.30495,0.49905 -22.88454,9.94284 z" id="path4239" style="opacity:0.75;fill:none;fill-opacity:1;stroke:#f70000;stroke-width:1px;stroke-linecap:butt;stroke-linejoin:miter;stroke-opacity:1" inkscape:connector-curvature="0" class="hGRtqDbX_4"></path>
    <path d="m 236.33996,214.0983 -13.75567,-1.48925 -2.14932,-24.30262 -8.59729,-15.47513 2.36425,0.21494 c 0,0 2.14933,-4.29865 0.42987,-12.46608 l -1.50453,-7.09276 7.9525,-2.36426 h 8.59729 l 12.89593,16.97965 5.58824,14.18554 -8.81222,11.82127 z" id="path4241" style="opacity:0.75;fill:none;fill-opacity:1;stroke:none;filter:url(#filter10361)" inkscape:connector-curvature="0" class="hGRtqDbX_5"></path>
    <path d="m 196.86617,219.21347 c -17.84571,3.76448 -53.38219,-30.51296 -65.06229,-53.93426 l 19.85277,13.14033 c 9.45701,-10.31675 20.11197,-6.66705 14.52373,-58.68066 0,0 0.23392,42.78309 44.3677,64.2689 z" id="path4243" style="opacity:0.75;fill:none;fill-opacity:1;stroke:#000000;stroke-width:1px;stroke-linecap:butt;stroke-linejoin:miter;stroke-opacity:1" inkscape:connector-curvature="0" class="hGRtqDbX_6"></path>
    <path d="m 218.55911,157.40462 c -7.19591,-11.03374 -83.98952,4.64469 -124.09723,-2.07947 -3.92984,-0.65885 -8.87251,-11.56935 -13.04936,-16.94712 -2.48519,-3.19973 -9.5419,-1.29405 -7.54769,2.57557 1.86941,3.62747 9.80105,14.54372 8.44408,14.5252 -8.2101,-0.11205 -13.25048,2.92357 -13.25048,2.92357 -3.37149,4.50725 -1.91911,9.67195 0.98248,9.56448 0,0 5.89668,-2.86051 15.32415,-2.68559 52.6401,0.97669 121.21843,-5.23177 132.54926,-0.13907 z" id="path4227" style="opacity:0.75;fill:none;fill-opacity:1;stroke:#f70000;stroke-width:1px;stroke-linecap:butt;stroke-linejoin:miter;stroke-opacity:1" inkscape:connector-curvature="0" class="hGRtqDbX_7"></path>
    <path d="m 99.88726,206.05544 c 1.01015,39.39595 12.12183,114.14729 12.12183,114.14729 5.55584,8.3337 28.78935,2.7779 31.56727,-1.0102 0,0 -14.89975,-72.73098 -14.89975,-114.65231 l 0.50507,-0.50508 z" id="path4247" style="opacity:0.75;fill:none;fill-opacity:1;stroke:#034484;stroke-width:1px;stroke-linecap:butt;stroke-linejoin:miter;stroke-opacity:1" inkscape:connector-curvature="0" class="hGRtqDbX_8"></path>
    <path d="m 95.77425,224.41505 35.2489,69.63807 99.72857,15.90499 -35.2489,-79.09509 8.59729,-39.9774 -7.73756,3.00905 -5.80317,0.6448 -3.43892,-2.36426 -3.86878,-6.87783 -2.71589,3.072 -7.81579,1.22664 -5.37331,-2.79412 -3.86878,-4.72851 -1.71946,-5.80317 0.42987,-6.44797 -9.02715,6.87784 -4.29864,8.38236 -1.2896,10.74661 -9.45702,21.2783 6.87783,19.77377 -8.16742,3.43891 -12.03621,-8.38236 -26.65161,-10.74661 z" id="path4249" style="opacity: 0.75; fill: none; fill-opacity: 1; stroke: rgb(0, 0, 0); stroke-width: 0.1; stroke-linecap: butt; stroke-linejoin: miter; stroke-miterlimit: 4; stroke-opacity: 1; filter: url(&quot;#filter3855&quot;);" inkscape:connector-curvature="0" class="hGRtqDbX_9"></path>
    <path d="m 167.83765,140.46022 c 0,0 -17.76537,-5.08119 -32.86456,-5.73838 -15.35126,-0.66816 -44.51071,-3.51452 -60.91082,-0.60662 0.2219,-3.09437 -1.28381,-6.11607 -1.28381,-6.11607 4.46429,-1.07143 12.76219,-2.08108 12.87564,-3.05278 0.11345,-0.9717 -8.44941,-1.29992 -12.31183,-6.0136 -0.96652,-1.94881 -0.25453,-4.20951 2.32715,-5.46619 1.53927,-0.80357 3.22197,2.23735 7.74393,3.74992 4.67718,1.56449 9.3929,2.122 13.59798,1.41596 4.20508,-0.70604 24.85637,-6.15137 70.31322,-1.60569 z" id="path4261" style="fill:none;fill-opacity:1;stroke:#034484;stroke-width:1px;stroke-linecap:butt;stroke-linejoin:miter;stroke-opacity:1" inkscape:connector-curvature="0" class="hGRtqDbX_10"></path>
    <path d="m 74.26963,117.49783 c -0.72579,3.91891 9.31763,7.50601 14.82143,5.89286 -6.22967,-0.34081 -12.76488,-3.267 -14.82143,-5.89286 z" id="path4289" style="fill:none;fill-opacity:1;fill-rule:evenodd;stroke:none;filter:url(#filter3846)" inkscape:connector-curvature="0" class="hGRtqDbX_11"></path>
    <path d="m -296.42857,382.59375 c 2.30993,0.52606 9.94263,2.41673 15.71429,2.85715 -5.4261,-2.12652 -12.94345,-4.07057 -15.71429,-2.85715 z" transform="matrix(1.1702909,-0.08960588,-0.07634373,-0.99708156,450.61196,484.64483)" id="path4293" style="fill:none;fill-opacity:1;fill-rule:evenodd;stroke:none;filter:url(#filter3846)" inkscape:connector-curvature="0" class="hGRtqDbX_12"></path>
    <path d="m 92.56365,162.87142 c 5.30331,-6.81853 3.53554,-35.1028 3.53554,-35.1028 0,0 -2.77792,-22.72843 -1.26269,-32.82996 l 30.30457,-1.01015 4.29315,-0.25254 5.3033,73.4886 -12.87944,-2.77792 -6.81853,-6.56599 -13.63706,1.51523 -7.07107,6.31345 z" id="path4263" style="opacity:0.75;fill:none;fill-opacity:1;stroke:#034484;stroke-width:1px;stroke-linecap:butt;stroke-linejoin:miter;stroke-opacity:1;filter:url(#filter3860)" inkscape:connector-curvature="0" class="hGRtqDbX_13"></path>
    <path d="M 128.21686,93.996682 A 5.0433191,16.025188 88.60619 1 1 96.175619,94.760257 5.0433191,16.025188 88.60619 1 1 128.21686,93.996682 Z" id="path4265" style="fill: none; fill-opacity: 1; fill-rule: evenodd; stroke: rgb(3, 68, 135); stroke-width: 3.85778; stroke-linecap: round; stroke-linejoin: round; stroke-miterlimit: 4; stroke-opacity: 1;" inkscape:connector-curvature="0" class="hGRtqDbX_14"></path>
    <path d="m 119.58524,228.78388 c 10.10152,-1.01016 19.19289,-12.12183 19.19289,-12.12183 l 0.46272,-6.45308 10.35714,-22.85715 -2.36624,-9.72134 -6.56233,-7.42151 -19.28572,-5.71429 -5.35714,-6.78571 h -14.28571 l -10.71429,13.21428 -5.35714,13.21429 2.5,23.92857 10.87569,13.32668 z" id="path4267" style="opacity:0.75;fill:none;fill-opacity:1;stroke:none" inkscape:connector-curvature="0" class="hGRtqDbX_15"></path>
    <path d="m -261.00272,446.54021 c 1.89339,-3.84934 10,-3.98677 10,-3.98677 8.17096,0.15846 14.217,-16.02097 14.217,-16.02097 l -17.58623,-12.15886 -10.94059,-1.65946 -11.85877,10.8643 c 0,0 0.45431,24.03319 16.16859,22.96176 z" transform="matrix(1,0,0,0.81392483,369.59798,-179.18022)" id="path4273" style="fill:none;fill-opacity:1;stroke:none;filter:url(#filter3788)" inkscape:connector-curvature="0" class="hGRtqDbX_16"></path>
    <path d="m 96.36576,167.14262 c 11.74239,-9.37238 27.30874,-1.53318 27.30874,-1.53318 l -9.07651,-8.61476 -8.92857,0.35715 -8.21429,4.64285 z" id="path4275" style="fill:none;fill-opacity:1;stroke:none;filter:url(#filter3814)" inkscape:connector-curvature="0" class="hGRtqDbX_17"></path>
    <path d="m 107.02147,275.69284 c 0,0 -16.92006,-25.25381 -18.94036,-37.12311 0,0 -12.37437,-18.68782 -6.31346,-34.85026 -3.53553,-20.96066 1.51523,-30.55711 11.36422,-41.41625 l 2.34815,2.12833 c 0,0 -22.85714,18.21429 -0.71429,58.92857 l 31.37821,64.60951 78.86148,28.40148 45.688,4.36802 2.39569,5.4592 c -22.35296,9.8868 -50.59822,2.4642 -50.59822,2.4642 -21.9231,-7.3077 -48.27165,-12.66052 -59.44812,-18.6786 -25.36201,-15.04526 -36.0213,-34.29109 -36.0213,-34.29109 z" id="path4277" style="opacity:0.75;fill:none;fill-opacity:1;stroke:#034484;stroke-width:1px;stroke-linecap:butt;stroke-linejoin:miter;stroke-opacity:1;filter:url(#filter3884)" inkscape:connector-curvature="0" class="hGRtqDbX_18"></path>
    <path d="m 212.09798,112.35182 c 0.17857,-10.17857 -8.75,-33.74999 -15.89286,-37.32142 -10.08046,-6.91268 -3.35364,-20.50418 1.42857,-28.57143 0,0 -3.57143,-8.75 -11.60714,-6.78572 -10.19895,11.55324 -8.8928,20.93087 -10.51895,27.59553 -0.96828,3.96845 -3.05247,2.66164 -3.05247,-1.52409 0,0 0.53571,-21.60715 6.78571,-30.53572 0,0 -3.21429,-7.5 -12.67857,-5.53572 -12.71695,17.16092 -7.1885,48.69911 -13.03572,38.57143 0,0 -11.24999,-25.53571 -17.85713,-29.46428 l -8.84564,8.98985 c 2.5,4.64285 13.86542,22.41893 10.63135,25.653 0,0 -30.35714,34.28572 -5.35714,93.92858 l 11.07143,4.64285 6.42857,10.35715 9.2857,-11.07143 c 13.81043,-13.95538 8.22282,-28.329 7.92617,-48.05746 -0.75762,-18.43529 12.56562,-10.2114 12.81816,-5.66571" id="path4279" style="opacity:0.75;fill:none;fill-opacity:1;stroke:#f90113;stroke-width:1px;stroke-linecap:butt;stroke-linejoin:miter;stroke-opacity:1" inkscape:connector-curvature="0" class="hGRtqDbX_19"></path>
    <path d="m 203.02781,213.99909 c 3.95148,-7.90296 6.99108,-19.45345 6.99108,-19.45345 l -3.95148,-1.82376 -6.99108,17.93365 z" id="path4364" style="fill:none;fill-opacity:1;stroke:#7c0000;stroke-width:1px;stroke-linecap:butt;stroke-linejoin:miter;stroke-opacity:1" inkscape:connector-curvature="0" class="hGRtqDbX_20"></path>
    <path d="m 196.94861,220.68621 c 12.46236,-2.73564 6.0792,-16.71781 6.0792,-16.71781 z" id="path4368" style="fill:none;fill-opacity:1;stroke:#7c0000;stroke-width:1px;stroke-linecap:butt;stroke-linejoin:miter;stroke-opacity:1" inkscape:connector-curvature="0" class="hGRtqDbX_21"></path>
    <path d="m 162.60111,169.31695 0.91188,12.76632 8.20692,6.68713 10.63861,-3.95149 3.0396,3.03961 3.95148,4.5594 4.86337,2.43168 12.46236,-5.77524 6.38317,-12.15841 -1.82377,-7.90296 -17.32572,-11.85445 -17.02177,0.91188 z" id="path4245" style="opacity:0.75;fill:none;fill-opacity:1;stroke:#000000;stroke-width:1px;stroke-linecap:butt;stroke-linejoin:miter;stroke-opacity:1" inkscape:connector-curvature="0" class="hGRtqDbX_22"></path>
    <path d="m 159.82406,176.48515 c 0,6.6629 2.79412,13.11087 2.79412,13.11087 3.84526,8.34485 18.98927,10.1069 19.98871,-4.08371 l -3.22399,2.14932 -10.96155,-0.85973 -6.6629,-8.81222 z" id="path4281" style="fill:none;fill-opacity:1;stroke:none" inkscape:connector-curvature="0" class="hGRtqDbX_23"></path>
    <path d="m 206.86926,189.91235 c -3.73649,5.5166 -4.36598,6.45458 -4.36598,6.45458 l -1.07466,1.28959 c -1.75768,6.75642 -24.1357,6.24911 -18.48493,-13.04645 l 1.46401,3.58753 9.55783,5.43531 10.45841,-3.55966 z" id="path4283" style="fill:none;fill-opacity:1;stroke:none" inkscape:connector-curvature="0" class="hGRtqDbX_24"></path>
    <path d="m 74.485408,130.97762 a 2.978792,1.529635 76.917596 1 1 -3.041453,0.4117 2.978792,1.529635 76.917596 1 1 3.041453,-0.4117 z" id="path4285" style="fill: none; fill-opacity: 1; fill-rule: evenodd; stroke: rgb(3, 68, 132); stroke-width: 1.24754; stroke-linecap: round; stroke-linejoin: round; stroke-miterlimit: 4; stroke-opacity: 1;" inkscape:connector-curvature="0" class="hGRtqDbX_25"></path>
    <path d="m -293.48214,370.71875 c -0.72579,3.91891 9.31763,7.50601 14.82143,5.89286 -6.22967,-0.34081 -12.76488,-3.267 -14.82143,-5.89286 z" transform="matrix(1.2114673,0,0,1.0816691,431.48116,-286.25769)" id="path4287" style="fill:none;fill-opacity:1;fill-rule:evenodd;stroke:none;filter:url(#filter3846)" inkscape:connector-curvature="0" class="hGRtqDbX_26"></path>
    <path d="m -295.73178,370.66537 c 0,0 1.45101,-1.08702 2.55546,-0.92195 0,0 -1.17095,-0.7921 -2.55546,0.92195 z" transform="matrix(1.0509372,0,0,1.0817609,384.98147,-285.66005)" id="path4291" style="fill:none;fill-opacity:1;stroke:none;filter:url(#filter3882)" inkscape:connector-curvature="0" class="hGRtqDbX_27"></path>
    <path d="m -294.57074,381.36682 c -0.72579,3.91891 9.31763,7.50601 14.82143,5.89286 -6.22967,-0.34081 -12.76488,-3.267 -14.82143,-5.89286 z" transform="matrix(0.75202032,-0.57003707,0.47341495,0.9055047,115.33005,-383.04034)" id="path4295" style="fill:none;fill-opacity:1;fill-rule:evenodd;stroke:none;filter:url(#filter3846)" inkscape:connector-curvature="0" class="hGRtqDbX_28"></path>
    <path d="m -257.5414,454.39023 c -6.59727,-0.21259 -16.87298,4.08581 -14.46875,12.25 6.14616,9.88587 21.70513,9.48982 30.0625,2.75 5.22616,-5.4603 -0.82285,-13.6807 -7.3125,-14.15625 -2.68975,-0.72234 -5.49826,-0.99292 -8.28125,-0.84375 z" transform="matrix(1.198409,0,0,1.2280808,421.93905,-365.05715)" id="path4297" style="fill:none;fill-opacity:1;fill-rule:evenodd;stroke:none;filter:url(#filter3764)" inkscape:connector-curvature="0" class="hGRtqDbX_29"></path>
    <path d="m 129.7051,205.06041 a 14.784907,7.4754701 0 0 1 -29.56981,0 14.784907,7.4754701 0 1 1 29.56981,0 z" id="path4299" style="fill: none; fill-opacity: 1; fill-rule: evenodd; stroke: rgb(3, 68, 132); stroke-width: 0.689845; stroke-linecap: round; stroke-linejoin: round; stroke-miterlimit: 4; stroke-opacity: 1;" inkscape:connector-curvature="0" class="hGRtqDbX_30"></path>
    <path d="m -293.48214,370.71875 c -0.72579,3.91891 9.31763,7.50601 14.82143,5.89286 -6.22967,-0.34081 -12.76488,-3.267 -14.82143,-5.89286 z" transform="matrix(0.43207409,2.2584218,-1.010535,0.7697991,622.19907,483.02393)" id="path4301" style="fill:none;fill-opacity:1;fill-rule:evenodd;stroke:none;filter:url(#filter3824)" inkscape:connector-curvature="0" class="hGRtqDbX_31"></path>
    <path d="m -293.48214,370.71875 c -0.72579,3.91891 9.31763,7.50601 14.82143,5.89286 -6.22967,-0.34081 -12.76488,-3.267 -14.82143,-5.89286 z" transform="matrix(-0.43207409,2.2584218,1.010535,0.7697991,-404.53758,500.16683)" id="path4303" style="fill:none;fill-opacity:1;fill-rule:evenodd;stroke:none;filter:url(#filter3824)" inkscape:connector-curvature="0" class="hGRtqDbX_32"></path>
    <path d="m 129.85944,41.125152 a 3.0044282,5.8507856 48.621843 1 1 3.54376,4.876745 3.0044282,5.8507856 48.621843 1 1 -3.54376,-4.876745 z" id="path4305" style="fill: none; fill-opacity: 1; fill-rule: evenodd; stroke: url(&quot;#linearGradient3320&quot;); stroke-width: 2.45035; stroke-linecap: round; stroke-linejoin: round; stroke-miterlimit: 4; stroke-opacity: 1;" inkscape:connector-curvature="0" class="hGRtqDbX_33"></path>
    <path d="m 148.15854,254.13866 -2.17928,-12.40819 c -0.16881,-0.83303 0.006,-2.18243 0.19883,-0.83433 z" id="path4307" style="fill: none; fill-opacity: 1; stroke: rgb(0, 0, 0); stroke-width: 0.0283422; stroke-linecap: butt; stroke-linejoin: miter; stroke-miterlimit: 4; stroke-opacity: 1;" inkscape:connector-curvature="0" class="hGRtqDbX_34"></path>
    <path d="m 166.56673,72.2575 c -18.66753,0 -33.81249,19.40748 -33.81249,43.375 0,4.37946 0.52898,8.60818 1.46875,12.59375 -0.28959,-2.28548 -0.46875,-4.64071 -0.46875,-7.03125 0,-23.96752 15.14496,-43.375 33.81249,-43.375 15.16738,0 28.00171,12.80318 32.28125,30.46875 C 197.12232,87.83128 183.27772,72.2575 166.56673,72.2575 Z" id="path4309" style="fill:none;fill-opacity:1;fill-rule:evenodd;stroke:none;filter:url(#filter3744)" inkscape:connector-curvature="0" class="hGRtqDbX_35"></path>
    <path d="m 166.02655,136.99468 c -4.28571,-31.78572 11.07143,-27.85716 13.57143,-19.28571 -1.56311,-26.8248 -31.76803,-5.02918 -13.57143,19.28571 z" id="path4311" style="fill:none;fill-opacity:1;stroke:none;filter:url(#filter3760)" inkscape:connector-curvature="0" class="hGRtqDbX_36"></path>
    <path d="m -231.07143,301.29075 c 5.89286,7.67858 9.46429,16.96429 9.46429,16.96429 l 0.17857,0.53571 z" transform="matrix(1.2069476,0,0,1.2069476,416.06281,-320.28959)" id="path4313" style="fill:none;stroke:none;filter:url(#filter3815)" inkscape:connector-curvature="0" class="hGRtqDbX_37"></path>
    <path d="m -204.93086,293.38779 c 5.89286,7.67858 9.46429,16.96429 9.46429,16.96429 l 0.17857,0.53571 z" transform="matrix(-1.7411378,0.38222934,0.38222934,1.7411378,-292.32669,-402.34961)" id="path4315" style="fill:none;stroke:none;filter:url(#filter3815)" inkscape:connector-curvature="0" class="hGRtqDbX_38"></path>
    <path d="m -204.93086,293.38779 c 5.89286,7.67858 9.46429,16.96429 9.46429,16.96429 l 0.17857,0.53571 z" transform="matrix(-0.78066768,-0.97747697,0.97747697,-0.78066768,-260.60155,93.74547)" id="path4317" style="fill:none;stroke:none;filter:url(#filter3815)" inkscape:connector-curvature="0" class="hGRtqDbX_39"></path>
    <path d="m 179.60479,255.62353 c -4.19299,-5.60044 -2.22496,-11.77446 4.3665,-1.92833 6.4652,9.65754 12.62407,-1.50215 15.0249,-2.16196 l 0.51109,3.95178 -5.59123,5.99319 c 0,0 1.49781,0.82869 7.27306,2.34849 1.52601,-1.16447 6.62302,8.73221 1.31244,3.67735 0,0 -12.95609,-4.73721 -13.26005,-2.00157 0,0 9.6711,11.24953 20.6102,11.54574 l -0.99039,3.07637 c 0,0 -10.26161,-3.98259 -3.14912,1.87214 l -1.71522,2.16398 c 0,0 -11.25495,-15.36162 -0.48667,4.96282 0,0 11.97884,2.04606 12.17341,5.06947 0.0832,1.29359 2.28788,4.79345 0.23768,3.75127 -15.45272,-7.85001 -8.75827,0.12013 -6.69106,6.08297 0.52829,1.52384 -3.009,-2.10365 -3.47244,-0.40895 -0.50091,-3.98088 -16.14974,-31.65147 -19.68213,-34.0705 -3.53238,-2.41902 -3.45919,-5.11913 -2.43368,8.25767 l -2.5477,-0.63767 c -0.45579,20.08105 0.87461,-15.67175 -1.48959,-21.54426 z" id="path4319" style="fill: none; fill-opacity: 1; stroke: rgb(128, 128, 128); stroke-width: 0.5; stroke-miterlimit: 4;" inkscape:connector-curvature="0" class="hGRtqDbX_40"></path>
    <path d="m 139.06032,289.46366 c 6.37739,-10.09135 15.32482,-10.69218 12.53324,-15.66362 -2.90339,-5.17057 0.46755,-11.3002 4.15156,-5.79711 3.68402,5.50309 4.61006,5.09307 6.58912,6.14966 0.12369,0.066 -1.1235,-4.09077 -0.43002,-4.2786 0.34674,-0.0939 0.74878,-1.77478 1.62007,-0.90209 0.87128,0.87269 2.21181,4.29893 2.71607,4.10246 2.01703,-0.78585 4.40939,-1.93313 6.15807,-3.24674 3.49736,-2.62722 -1.91546,0.41363 -1.73019,0.92516 1.45524,4.01791 -3.24296,5.38433 -1.93505,5.62344 5.23163,0.95645 11.17106,0.28128 17.23484,-1.41645 l 9.74685,6.92397 -15.43491,-1.23444 c 0,0 16.46299,1.2891 22.6681,0.0148 l 2.14413,5.12901 c -6.99108,-4.25544 -32.03268,-4.89319 -32.03268,-4.89319 0,0 -12.65846,-3.02408 -12.96242,-0.28844 0,0 14.24316,10.66321 25.18226,10.95942 l 1.54559,4.38124 c 0,0 -11.28412,-3.67863 -6.90727,6.43154 l -3.23502,-1.48354 c 0,-7.599 -13.2351,-15.32351 -20.32787,-7.80088 0,0 -0.89585,-1.85948 -3.74257,-0.39929 -0.50091,-3.98088 6.17916,-7.02935 1.78316,-11.51265 -1.095,-1.11674 -5.79922,3.023 -10.14707,12.74595 l -7.92363,-11.46067 z" id="path4321" style="fill: none; fill-opacity: 1; stroke: rgb(128, 128, 128); stroke-width: 0.5; stroke-miterlimit: 4;" inkscape:connector-curvature="0" class="hGRtqDbX_41"></path>
    <path d="m 145.12924,200.91375 c -8.59729,24.50228 -12.79805,20.02912 -38.375,25.1875 14.35485,14.35485 32.44089,18.97099 44.90696,46.48232 l 4.2934,-3.2309 c -24.37703,-42.04834 -10.82536,-68.43892 -10.82536,-68.43892 z m -7.8125,31.75 c 0.32053,0.0119 0.74773,0.37825 1.09375,1.3125 l 9.71875,24.09375 -11.0625,-23.4375 c -0.58561,-1.0143 -0.28421,-1.98861 0.25,-1.96875 z m -10.71875,9.375 c 0.0639,0.01 0.20665,0.0952 0.46875,0.3125 l 10.34375,8.46875 -9.9375,-7.71875 c -0.51346,-0.37779 -1.06669,-1.09138 -0.875,-1.0625 z m 12.03125,6.9375 c 0.16488,0.0155 0.35815,0.1556 0.5625,0.46875 l 7.46875,10.9375 -8.21875,-10.25 c -0.39831,-0.43001 -0.28387,-1.00985 0.0312,-1.125 0.0473,-0.0173 0.10129,-0.0364 0.15625,-0.0312 z m 5.15625,3.34375 c 0.1436,-0.0353 0.33462,0.0482 0.5,0.375 l 4.59375,8.59375 -5.1875,-8.15625 c -0.25626,-0.34598 -0.14558,-0.75375 0.0937,-0.8125 z" id="path4323" style="fill:none;fill-opacity:1;stroke:none" inkscape:connector-curvature="0" class="hGRtqDbX_42"></path>
    <path d="m 166.20025,296.01332 c 2.9016,-8.43037 5.16453,-19.39116 2.37294,-24.3626 -2.90339,-5.17057 -2.43989,-15.64324 4.15157,-5.79711 6.4652,9.65754 18.09535,10.3523 30.22291,6.95684 l 4.15861,4.55971 -9.84667,1.12982 c 0,0 6.36117,3.86829 12.13642,5.38809 l 5.15318,7.0634 c -6.99108,-4.25544 -24.51005,-12.20089 -24.51005,-12.20089 0,0 -9.00461,-1.08969 -9.30857,1.64595 0,0 6.93546,8.51389 17.87456,8.8101 l 3.26505,4.59617 c 0,0 -9.34973,-3.67863 -4.97288,6.43154 l -3.23502,-1.48354 c 0,-7.599 -10.64703,-15.05766 -2.91835,1.01134 0,0 -0.68092,-1.85948 -3.52765,-0.39929 -0.50091,-3.98088 -7.63886,-16.75742 -11.17125,-19.17645 -3.53238,-2.41902 -3.45919,5.51948 -2.43374,18.89628 z" id="path4325" style="fill: none; fill-opacity: 1; stroke: rgb(128, 128, 128); stroke-width: 0.5; stroke-miterlimit: 4;" inkscape:connector-curvature="0" class="hGRtqDbX_43"></path>
    <path d="m 151.25424,198.7575 -34.09375,30.75 10.40625,7.59375 c 0,0 32.9999,16.61136 40.68749,32.40625 l 3.5,-4.3125 c -7.98334,-13.03854 -20.49999,-66.4375 -20.49999,-66.4375 z m -2.84375,32.5625 c 0.31857,-0.0373 0.76502,0.25474 1.25,1.125 l 13.31249,22.3125 -14.49999,-21.46875 c -0.734,-0.91268 -0.59345,-1.90658 -0.0625,-1.96875 z m 9.74999,6.21875 c 0.0494,0.0222 0.13837,0.19616 0.25,0.5625 l 3.96875,12.78125 -4.03125,-11.9375 c -0.18398,-0.49835 -0.27986,-1.22445 -0.21875,-1.375 0.009,-0.0226 0.0148,-0.0387 0.0312,-0.0312 z m -20.46874,1.875 c 0.0646,-2.7e-4 0.23897,0.0442 0.53125,0.21875 l 11.53125,6.8125 -11.03125,-6.125 c -0.56525,-0.29472 -1.2251,-0.90544 -1.03125,-0.90625 z m 11.15625,2.90625 c 0.15873,0.0172 0.37162,0.12775 0.59375,0.375 l 9.06249,9.6875 -9.71874,-8.875 c -0.55134,-0.43674 -0.41368,-1.23922 0.0625,-1.1875 z m 4.46874,1.5625 c 0.12737,0.0102 0.27741,0.12056 0.4375,0.34375 l 5.84375,7.78125 -6.375,-7.25 c -0.3062,-0.30267 -0.25881,-0.74905 -0.0312,-0.84375 0.0341,-0.0142 0.0825,-0.0346 0.125,-0.0312 z m 4.1875,8.9375 c 0.0605,0.0228 0.16404,0.13903 0.375,0.40625 l 8.375,10.46875 -8.125,-9.65625 c -0.42326,-0.47667 -0.80643,-1.28702 -0.625,-1.21875 z m 7.28125,1.1875 c 0.0357,0.0236 0.0906,0.13985 0.1875,0.34375 l 3.875,7.96875 -3.84375,-7.40625 c -0.20314,-0.37065 -0.32595,-0.97719 -0.21875,-0.90625 z m -4.15625,0.625 c 0.0134,-0.056 0.0942,-0.004 0.28125,0.25 l 4.96875,6.625 -4.875,-6.125 c -0.21482,-0.25419 -0.39741,-0.65671 -0.375,-0.75 z" id="path4327" style="fill:none;fill-opacity:1;stroke:none" inkscape:connector-curvature="0" class="hGRtqDbX_44"></path>
    <path d="m 149.87924,190.97625 c -5.58824,12.03621 -12.625,27.6875 -12.625,27.6875 l -0.0389,5.62287 c 0,0 34.09073,17.96947 43.38263,32.87713 0,-2.12772 2.5625,-4.34375 2.5625,-4.34375 -9.29877,-12.13549 -31.99164,-33.04282 -33.28124,-61.84375 z m -4.96875,30.40625 c 0.38116,0.0322 0.8221,0.18665 1.28125,0.5 l 9.49999,9.375 -11.37499,-8.28125 c -1.15418,-0.74682 -0.54974,-1.69051 0.59375,-1.59375 z m 11.99999,0.125 c 0.31295,-0.0703 0.77071,0.18503 1.34375,1 l 15.5625,20.8125 -16.65625,-19.84375 c -0.82513,-0.83121 -0.77158,-1.85158 -0.25,-1.96875 z m -5.49999,1.53125 c 0.0633,0.013 0.21858,0.11283 0.46875,0.34375 l 9.90624,9.03125 -9.53124,-8.25 c -0.49264,-0.40456 -1.03363,-1.16404 -0.84375,-1.125 z m 0.5625,7.21875 c 0.0643,0.006 0.19596,0.10878 0.46875,0.3125 l 10.78124,7.9375 -10.31249,-7.21875 c -0.53196,-0.35128 -1.13043,-1.05038 -0.9375,-1.03125 z m 6.53124,2.15625 c 0.15966,6e-4 0.34706,0.0897 0.59375,0.3125 l 10.03125,8.6875 -10.5625,-7.8125 c -0.59386,-0.3769 -0.54148,-1.18931 -0.0625,-1.1875 z m 4.5,1.09375 c 0.035,-0.013 0.0813,-0.005 0.125,0 0.11652,0.0133 0.27529,0.0988 0.4375,0.28125 l 6.625,7.15625 -7.09375,-6.5625 c -0.3529,-0.28256 -0.33874,-0.78397 -0.0937,-0.875 z" id="path4329" style="fill:none;fill-opacity:1;stroke:none" inkscape:connector-curvature="0" class="hGRtqDbX_45"></path>
    <path d="m 146.19174,193.945 c -8.42935,3.57316 -7.96454,24.18517 -24.31943,26.1653 -4.43354,0.54036 -15.21182,-3.07155 -15.21182,-3.07155 0,0 -4.25872,-0.92605 -7.90625,0.59375 0,0 24.82988,8.14493 40.21875,24.8125 6.335,6.86139 15.8647,13.8675 22.99999,28.8125 l 2.59375,-0.40625 -0.4375,-0.4375 c -2.14932,-6.87783 -19.78124,-35.25 -19.78124,-35.25 l -6.4375,-20.625 c 0,0 7.73252,-19.34721 8.28125,-20.59375 z m -7,44.34375 c 0.25813,-0.0158 0.71705,0.28366 1.28125,0.96875 0,0 10.44696,12.01272 20.65624,28.5625 -11.60634,-18.05431 -19.5755,-26.08922 -21.18749,-27.59375 -1.05524,-1.05524 -1.18021,-1.91119 -0.75,-1.9375 z m 5.59375,3.84375 c 0.21383,1.9e-4 0.56947,0.24947 1,0.84375 0,0 7.98464,10.47536 15.56249,24.65625 -8.65374,-15.49409 -14.80921,-22.5508 -16.06249,-23.875 -0.81682,-0.92491 -0.85639,-1.62532 -0.5,-1.625 z m 7.46875,8.5 c 0.13772,0.007 0.36585,0.1666 0.625,0.5625 0,0 4.8021,6.97892 9.24999,16.34375 -5.10077,-10.24347 -8.82695,-14.98386 -9.59374,-15.875 -0.49786,-0.62064 -0.51078,-1.04233 -0.28125,-1.03125 z" id="path4332" style="fill:none;fill-opacity:1;stroke:none" inkscape:connector-curvature="0" class="hGRtqDbX_46"></path>
    <path d="m 236.55298,262.74377 c 2.08943,-6.07067 3.71895,-13.96349 1.70874,-17.54341 -2.09072,-3.7233 -1.75695,-11.26463 2.98953,-4.17447 4.65556,6.95435 13.03039,7.45465 21.76339,5.00959 l 2.9946,3.28343 -7.09054,0.81358 c 0,0 4.58065,2.78554 8.73938,3.87994 l 3.71079,5.08633 c -5.03425,-3.06433 -17.64959,-8.78581 -17.64959,-8.78581 0,0 -6.48418,-0.78469 -6.70306,1.18524 0,0 9.07791,6.56068 16.95511,6.77398 l 2.99594,4.38434 c 0,0 -11.46121,-4.15349 -8.30946,3.1268 1.28526,2.90977 2.13026,4.61593 2.66175,7.18261 0,0 2.94859,7.04335 0.89867,8.09483 -0.3607,-2.86662 -16.03239,-27.97194 -18.57605,-29.71388 -1.2281,-0.84102 -0.29783,5.21703 1.07604,12.79243 0.17667,0.97414 17.27908,14.45273 17.52802,15.45233 1.89419,7.60583 -16.62699,-10.56837 -16.4488,-9.61101 1.22484,6.58087 2.46173,13.28433 2.75511,17.11141 l -1.02668,1.58702 -2.35119,-10.75077 c 0,0 -5.42742,4.1393 -9.08127,9.72754 l -1.53363,-2.40165 9.7135,-11.4475 -3.35896,-15.35883 c 0,0 -6.35106,16.71317 -6.35106,23.80593 l -2.8323,-2.39311 c 0,0 3.31749,-11.09878 4.82202,-17.11689 z" id="path4340" style="fill: none; fill-opacity: 1; stroke: rgb(128, 128, 128); stroke-width: 0.5; stroke-miterlimit: 4;" inkscape:connector-curvature="0" class="hGRtqDbX_47"></path>
    <path d="m 248.03686,187.0292 c -9.14218,5.03691 -20.88435,11.69357 -20.88435,11.69357 l -2.63944,3.54897 c 0,0 13.27039,27.25243 12.23264,41.03051 0.98943,-1.34978 3.64554,-1.56398 3.64554,-1.56398 -0.25572,-12.02266 -4.92934,-35.83858 7.6456,-54.70908 z m -17.29164,16.97862 c 0.22683,0.19767 0.43473,0.5007 0.58029,0.913 l 1.66707,10.36503 -3.36515,-10.54309 c -0.38491,-1.01049 0.43737,-1.32807 1.11779,-0.73494 z m 7.55447,5.65955 c 0.23121,0.10093 0.40287,0.47577 0.38743,1.25926 l 0.19433,20.43997 -1.33868,-20.33403 c -0.13691,-0.91101 0.37155,-1.53342 0.75692,-1.3652 z m -4.20117,-1.58622 c 0.0341,0.0377 0.0862,0.17322 0.13751,0.43605 l 2.08463,10.33588 -2.21003,-9.66589 c -0.12439,-0.48573 -0.11441,-1.2191 -0.0121,-1.10604 z m -3.00003,4.84103 c 0.038,0.0337 0.0737,0.16013 0.15205,0.41622 l 3.14833,10.04892 -3.1852,-9.37498 c -0.17411,-0.47022 -0.22868,-1.19202 -0.11518,-1.09016 z m 3.1406,4.40506 c 0.10102,0.0746 0.17846,0.21828 0.23135,0.47434 l 2.32378,10.17595 -3.06768,-9.8679 c -0.20147,-0.51526 0.20955,-1.00628 0.51255,-0.78239 z m 2.34611,2.78644 c 0.0282,0.008 0.0539,0.0346 0.0793,0.0581 0.0677,0.0626 0.12869,0.1907 0.14675,0.38186 l 0.87499,7.62057 -1.44846,-7.46188 c -0.0925,-0.34336 0.14967,-0.65485 0.34745,-0.59865 l -3e-5,-3e-5 z" id="path4342" style="fill:none;fill-opacity:1;stroke:none" inkscape:connector-curvature="0" class="hGRtqDbX_48"></path>
    <path d="m 211.34798,226.2575 c -0.68108,0.0898 -1.66505,0.91214 -3,2.90625 -2.73013,4.0782 -6.73338,5.93447 -11.34375,6.28125 0.38435,0.94923 0.85475,1.91321 1.34375,2.875 1.86085,-0.023 4.12232,0.16338 4.25,1.3125 0,0 -1.04062,0.71952 -2.59375,1.65625 0.64245,1.07627 1.31697,2.13393 2.03125,3.1875 1.83256,-2.64337 3.30159,-4.53327 3.9375,-4.96875 1.04563,-0.71607 0.49404,3.66014 -0.53125,9.625 0.70868,0.91044 1.39233,1.8101 2.09375,2.65625 l 1.15625,-5.1875 c 0,0 1.85619,4.91815 3.5625,10.53125 1.66013,1.7874 2.88227,3.04887 3.53125,3.6875 -0.96135,-3.34813 -2.05659,-7.16384 -2.75,-9.9375 -2.08943,-6.07068 -3.69771,-13.95134 -1.6875,-17.53125 1.5027,-2.67613 1.74053,-7.32327 0,-7.09375 z m 4.71875,35.59375 -1.90625,2.46875 c 0.51448,2.31982 0.875,4.46782 0.875,6.09375 l 2.84375,-2.40625 c 0,0 -0.82885,-2.75102 -1.8125,-6.15625 z m -5.15625,6.6875 -1.5625,2.0625 c 1.40118,1.483 2.88101,3.23714 4.15625,5.1875 l 1.53125,-2.375 z" id="path4344" style="fill: none; fill-opacity: 1; stroke: rgb(128, 128, 128); stroke-width: 0.5; stroke-miterlimit: 4;" inkscape:connector-curvature="0" class="hGRtqDbX_49"></path>
    <path d="m 246.67364,194.46854 c -17.81641,5.6952 -17.06885,1.33866 -31.13747,-11.12383 -2.01952,14.48307 3.17864,26.88306 -7.22331,45.99196 l 3.72102,1.06528 c 13.58713,-32.26628 34.63976,-35.93341 34.63976,-35.93341 z m -21.64177,9.2927 c 0.13231,0.18941 0.10718,0.59401 -0.27962,1.19848 l -9.63017,16.04608 8.6696,-16.53358 c 0.3288,-0.77695 1.01969,-1.02667 1.24019,-0.71098 z m -8.96743,-0.0495 c 0.022,0.0411 0.035,0.16011 0.0238,0.40511 l -1.45212,7.58029 1.19737,-7.02118 c -0.006,-0.45915 0.16427,-1.08695 0.23088,-0.96422 z m 0.16064,7.88554 c 0.0627,0.1015 0.0661,0.27341 -0.0253,0.52682 l -3.04461,9.04133 2.32384,-9.17397 c 0.0743,-0.41563 0.45724,-0.60158 0.6602,-0.47046 0.0305,0.0197 0.0649,0.0424 0.0858,0.0763 l 5e-5,1e-5 z m 0.31643,4.41545 c 0.0826,0.0672 0.11756,0.21327 0.001,0.45021 l -2.94551,6.37127 2.43628,-6.52263 c 0.0876,-0.29751 0.37006,-0.41091 0.50771,-0.29887 l 2e-5,2e-5 z" id="path4346" style="fill:none;fill-opacity:1;stroke:none" inkscape:connector-curvature="0" class="hGRtqDbX_50"></path>
    <path d="m 228.71877,255.651 c -2.08943,-6.07067 -3.71896,-13.96349 -1.70875,-17.54341 2.09072,-3.7233 1.75696,-11.26463 -2.98952,-4.17447 -4.65557,6.95435 -13.03039,7.45465 -21.7634,5.00959 l -2.9946,3.28343 7.09055,0.81358 c 0,0 -4.58065,2.78554 -8.73939,3.87994 l -0.97514,4.47841 c 5.03424,-3.06433 14.91395,-8.17789 14.91395,-8.17789 0,0 6.48418,-0.78469 6.70306,1.18524 0,0 -4.9942,6.13081 -12.8714,6.34411 l -2.35115,3.30969 c 0,0 6.7327,-2.64897 3.58095,4.63132 l 2.32953,-1.06829 c 0,-5.47201 7.66688,-10.84296 2.10149,0.72826 0,0 0.49033,-1.339 2.54025,-0.28752 0.3607,-2.86662 5.50071,-12.06695 8.04437,-13.80889 2.54365,-1.74192 -1.37783,8.48813 -2.11626,18.12071 l 2.74614,2.87662 2.31291,-11.31717 c 0,0 2.91214,9.83533 2.91214,16.92809 l 3.26217,3.41006 c 0,0 -0.52338,-12.6033 -2.0279,-18.62141 z" id="path4348" style="fill: none; fill-opacity: 1; stroke: rgb(128, 128, 128); stroke-width: 0.5; stroke-miterlimit: 4;" inkscape:connector-curvature="0" class="hGRtqDbX_51"></path>
    <path d="m 213.78548,177.32 c 0,0 9.35661,14.78654 10.21875,29.96875 0.35491,6.24992 4.42515,15.16334 1.75,25.9375 l 1.53125,0.875 -0.0312,-0.40625 c 1.81818,-4.47503 8.71875,-22.40625 8.71875,-22.40625 l 2.125,-15.5625 c 0,0 9.49741,-10.05747 10.3125,-10.46875 -5.88461,-1.7424 -14.41144,9.13114 -23.71875,3.1875 -2.52458,-1.60938 -6.5625,-8.0625 -6.5625,-8.0625 0,0 -1.80861,-2.29488 -4.34375,-3.0625 z m 12.25,25.375 c 0.51047,0.0672 1.00495,0.56024 0.84375,1.3125 l 0.21875,25.03125 c 0,-15.79752 -1.9375,-25.15625 -1.9375,-25.15625 -0.1612,-0.91346 0.36453,-1.25467 0.875,-1.1875 z m 3.4375,2.9375 c 0.0843,-0.028 0.16477,-0.0233 0.25,0 0.3409,0.093 0.62763,0.56001 0.4375,1.21875 l -1.96875,17.3125 c 1.06689,-11.03129 0.8125,-17.5 0.8125,-17.5 -0.009,-0.61736 0.21573,-0.94721 0.46875,-1.03125 z m 1.28125,7.34375 c 0.30055,-0.0692 0.6459,0.34098 0.4375,0.90625 l -2.90625,15.5 c 1.89388,-9.76825 2.09375,-15.71875 2.09375,-15.71875 0.0247,-0.43332 0.19467,-0.646 0.375,-0.6875 z" id="path4350" style="fill:none;fill-opacity:1;stroke:none" inkscape:connector-curvature="0" class="hGRtqDbX_52"></path>
    <path d="m 230.32185,158.69424 a 2.686655,4.3470992 0 0 1 -5.37331,0 2.686655,4.3470992 0 1 1 5.37331,0 z" id="path4352" style="fill: none; fill-opacity: 1; fill-rule: evenodd; stroke: rgb(67, 109, 136); stroke-width: 0.1; stroke-linecap: round; stroke-linejoin: round; stroke-miterlimit: 4; stroke-opacity: 1;" inkscape:connector-curvature="0" class="hGRtqDbX_53"></path>
    <path d="m 236.76982,166.4318 a 2.686655,4.3470992 0 0 1 -5.37331,0 2.686655,4.3470992 0 1 1 5.37331,0 z" id="path4354" style="fill: none; fill-opacity: 1; fill-rule: evenodd; stroke: rgb(67, 109, 136); stroke-width: 0.1; stroke-linecap: round; stroke-linejoin: round; stroke-miterlimit: 4; stroke-opacity: 1;" inkscape:connector-curvature="0" class="hGRtqDbX_54"></path>
    <path d="m 215.37278,161.017 a 2.83518,4.5874177 0 0 0 5.67036,0 2.83518,4.5874177 0 1 0 -5.67036,0 z" id="path4356" style="fill: none; fill-opacity: 1; fill-rule: evenodd; stroke: rgb(67, 109, 136); stroke-width: 0.105528; stroke-linecap: round; stroke-linejoin: round; stroke-miterlimit: 4; stroke-opacity: 1;" inkscape:connector-curvature="0" class="hGRtqDbX_55"></path>
    <path d="m 213.02434,173.9831 c 10.35406,-6.81853 -20.96067,-49.75001 28.03173,-42.93148 5.38996,-4.02792 1.26269,-8.08122 1.26269,-8.08122 0,0 -14.64721,-4.29315 -19.95051,-4.79823 0,0 16.16244,-2.27284 22.22335,-6.31345 1.82378,-9.23187 -4.79822,-8.5863 -4.79822,-8.5863 0,0 -19.69797,7.82869 -31.31473,9.59645 -11.61675,1.76777 -31.06219,5.3033 -31.06219,5.3033 l -10.32343,-1.14847 c 0,0 1.69906,33.84011 -1.33665,47.76868 l 1.81109,-2.1735 10.85914,-5.55583 17.17259,0.75761 14.64722,9.09137 z" id="path4358" style="opacity:0.75;fill:none;fill-opacity:1;stroke:#034484;stroke-width:1px;stroke-linecap:butt;stroke-linejoin:miter;stroke-opacity:1" inkscape:connector-curvature="0" class="hGRtqDbX_56"></path>
    <path d="m 210.32286,183.90704 c 8.20692,7.29504 -2.73565,17.62968 -6.68713,15.198 z" id="path4366" style="fill:none;fill-opacity:1;stroke:#7c0000;stroke-width:1px;stroke-linecap:butt;stroke-linejoin:miter;stroke-opacity:1" inkscape:connector-curvature="0" class="hGRtqDbX_57"></path>
    <path d="m 223.41048,148.85125 c -6.96781,0.13119 -9.64499,1.86083 -9.64499,1.86083 0.35536,1.57917 0.41906,3.11646 0.41906,3.11646 18.09232,-8.32502 22.21297,6.42072 30.41343,20.67896 -3.21428,5.35714 0,8.1875 0,8.1875 0.53571,2.14285 -1.07143,4.28571 -1.25,3.75 0,0 -2.54424,3.02623 -4.65625,5.90625 -1.96429,2.67857 -2.11607,6.60268 -3.1875,11.78125 -0.73258,3.54081 1.17006,20.32134 1.78125,13.75 0.6112,-6.57134 -0.36503,-13.25309 3.125,-21.5625 1.3913,-3.31253 4.71586,-5.52211 7.03125,-8.78125 0,0 0.72768,1.61161 3.40625,5.71875 2.67857,4.10714 -0.0669,5.89184 0.6875,10.875 0.79121,5.22618 -0.588,10.91235 -0.34375,12.5 0.24425,1.58765 3.04018,8.74107 3.21875,9.8125 0.15809,0.94855 -0.30395,4.3921 0.71875,6.4375 0.89286,1.78571 4.05858,5.29295 4.46875,6.25 1.07143,2.5 -0.16518,7.33035 0.90625,10.1875 1.07326,2.86203 7.7824,15.3229 8.75,17.5 0.71429,1.60714 0.26984,6.22987 -0.5625,7.125 -0.83234,0.89513 -4.69417,-1.74053 -5.6875,-1.59375 -0.99333,0.14678 -3.60972,0.90807 -1.96875,5.1875 1.64097,4.27943 3.02678,4.62053 3.5625,6.40625 0.94615,3.15383 -0.85542,5.15851 -2.15625,7.5 -0.89286,1.60714 -5.23762,4.28339 -7.125,3.21875 -0.74734,-0.7624 0.5626,-2.20916 0.375,-3.5625 -0.47776,-3.44671 -0.9297,-7.76405 -6.4375,-4.28125 -5.5078,3.4828 4.60034,9.16269 -1.25,15 -2.32143,1.78571 -4.12946,-2.6875 -7.34375,-2.6875 -3.21429,0 -5.63213,-19.41284 -12.3125,-27.6875 -6.75139,-8.36264 -32.21875,-30.42411 -30.34375,-46.40625 1.875,-15.98214 12.31564,-41.61367 15.15625,-41.96875 1.42857,-0.17857 4.92016,5.37156 5.71875,6.96875 1.42857,2.85715 2.13393,26.59822 4.8125,23.5625 0,0 -0.0282,-24.05852 -2.34375,-27 -2.31551,-2.94148 -3.89308,-4.16069 -8.3125,-16.15625 -4.41942,-11.99555 -23.875,-14.40625 -23.875,-14.40625 0,0 -13.46714,-2.22161 -23,7.96875 -6.02969,4.2065 -13.10082,7.77912 -16.53124,16.9375 -0.25628,-1.0433 -0.55596,-2.08266 -0.9375,-3.1875 -2.11465,-6.12343 -6.99498,-11.16962 -18.75,-12.1875 -2.85714,-2.5 -8.19196,-1.0625 -8.90625,-3.5625 -1.42857,-4.28571 -5.69196,-7.11607 -11.40625,-5.6875 -10,-0.71429 -13.25,5.3125 -13.25,5.3125 -18.92857,19.64286 -11.0625,38.21875 -11.0625,38.21875 0,0 -3.57143,11.78125 7.5,26.78125 0,0 -2.875,5.71428 -0.375,12.5 4.28572,11.42857 7.78228,25.43993 13.90625,32.21875 6.12396,6.77882 5.39109,7.89699 7.65625,10.71875 23.2851,29.00675 48.81367,17.9436 77.81249,33.59371 0,0 58.08993,35.61582 83.34375,-19.43746 4.54569,-14.14214 0.10757,-85.88955 -19.40625,-110.5 -11.22786,-9.56955 -14.76059,-36.05329 -32.34375,-36.875 z m -118.21874,9.96875 4.03125,0.25 c 0,0 4.28966,-0.4789 6.5625,0.53125 1.47766,0.65674 3.29588,5.23894 5.5625,6.0625 2.26663,0.82356 4.5625,1.25 4.5625,1.25 0,0 2.76602,2.02617 4.28125,2.53125 2.8042,0.93473 7.8045,-0.50229 11.625,3.28125 3.81083,3.77397 7.68683,13.52239 3.53125,23.21875 -1.51523,3.53553 -8.08934,12.31678 -8.8125,19.125 -0.66492,12.03088 10.95802,28.34002 8.5625,20.03125 0,0 -4.05996,-8.9565 -4.3125,-18.1875 -0.21505,-7.86077 10.75708,-16.02463 9.6875,-30.8125 1.32471,-4.21624 5.11625,-12.76413 10.31249,-13.75 -1.83971,5.49918 1.89187,14.13134 7.66906,16.58385 7.85522,3.33467 12.36523,-2.42444 13.99282,-4.13762 -6.76155,2.72804 -22.33018,3.62787 -17.25563,-14.41498 8.05495,-14.13415 25.32425,-11.74202 29.3125,-10.78125 3.69998,0.89132 25.83582,11.07471 11.09375,25.96875 0,0 -6.475,6.12049 -11.0724,7.29833 -4.07061,1.04289 -7.64864,-3.71352 -11.12073,-7.92023 0.74144,1.7661 1.69765,7.30897 3.87209,8.92023 7.27262,5.38901 12.6371,-1.34369 14.13354,0.0454 0.63349,0.96661 -0.27964,3.383 -0.96875,5.3125 -9.09137,20.70813 -10.40721,31.31804 -4.09375,52.53125 0,0 4.12501,15.16606 9,25.9375 2.81125,6.21155 7.4104,8.42759 7.6875,11.9375 1.51522,16.66751 -2.54128,12.62038 -10.59375,11.65625 -8.05246,-0.96413 -11.83528,-6.35222 -13.90625,-4.28125 -1.96429,1.96429 1.05357,6.75892 -2.875,4.4375 -8.92857,-6.07143 -15.54018,-3.03125 -16.96875,-5.53125 0,0 -3.19643,-13.02232 -12.125,-6.59375 -3.57142,4.28571 -5.53124,-0.71429 -10.53124,0 -5,0.71429 -9.37946,-7.76339 -13.21875,-8.03125 -3.83928,-0.26786 -15.08036,-10.89732 -16.0625,-19.46875 -0.98214,-8.57143 -6.70982,-15.08929 -7.15625,-17.5 -0.44642,-2.41071 0.5971,-3.7067 -1.0625,-5.90625 -1.6596,-2.19956 -8.58036,-4.28571 -8.9375,-12.5 13.03571,-1.42857 42.68304,20.55357 38.21875,14.125 0,0 -11.0759,-14.8259 -39.46875,-21.96875 0.35714,-3.39286 -3.92411,-6.80357 -8.03125,-10.375 -0.53572,-4.64286 -4.81696,-12.49107 -3.03125,-24.8125 4.28572,-14.46429 14.63511,-23.22006 17.90625,-24.0625 z" id="path4370" style="fill:none;fill-opacity:1;stroke:#f7dfa3;stroke-width:1px;stroke-linecap:butt;stroke-linejoin:round;stroke-opacity:1" inkscape:connector-curvature="0" class="hGRtqDbX_58"></path>
    <path d="m -296.42857,382.59375 c 2.30993,0.52606 9.94263,2.41673 15.71429,2.85715 -5.4261,-2.12652 -12.94345,-4.07057 -15.71429,-2.85715 z" transform="matrix(1.277453,-0.72353401,0.61644708,1.0883831,363.75975,-517.02373)" id="path4372" style="fill:none;fill-opacity:1;fill-rule:evenodd;stroke:none;filter:url(#filter3846)" inkscape:connector-curvature="0" class="hGRtqDbX_59"></path>
    <path d="m -296.42857,382.59375 c 2.30993,0.52606 9.94263,2.41673 15.71429,2.85715 -5.4261,-2.12652 -12.94345,-4.07057 -15.71429,-2.85715 z" transform="matrix(1.4639893,0.11010456,-0.0938085,1.247311,691.10042,-324.10681)" id="path4374" style="fill:none;fill-opacity:1;fill-rule:evenodd;stroke:none;filter:url(#filter3846)" inkscape:connector-curvature="0" class="hGRtqDbX_60"></path>
    <path d="m 260.19403,156.28151 a 2.7202002,4.0803006 0 1 1 -5.4404,0 2.7202002,4.0803006 0 1 1 5.4404,0 z" id="path4376" style="opacity: 0.75; fill: none; fill-opacity: 1; fill-rule: evenodd; stroke: rgb(124, 0, 0); stroke-width: 0.905; stroke-linecap: round; stroke-linejoin: round; stroke-miterlimit: 4; stroke-opacity: 1;" inkscape:connector-curvature="0" class="hGRtqDbX_61"></path>
    <path d="m -296.42857,382.59375 c 2.30993,0.52606 9.94263,2.41673 15.71429,2.85715 -5.4261,-2.12652 -12.94345,-4.07057 -15.71429,-2.85715 z" transform="matrix(0.75816671,-0.50563478,0.43079812,0.64595397,295.18524,-250.49721)" id="path4378" style="fill:none;fill-opacity:1;fill-rule:evenodd;stroke:none;filter:url(#filter3846)" inkscape:connector-curvature="0" class="hGRtqDbX_62"></path>
    <path d="m -296.42857,382.59375 c 2.30993,0.52606 9.94263,2.41673 15.71429,2.85715 -5.4261,-2.12652 -12.94345,-4.07057 -15.71429,-2.85715 z" transform="matrix(0.79564973,-0.44432511,0.37856261,0.6778893,334.01387,-233.67745)" id="path4380" style="fill:none;fill-opacity:1;fill-rule:evenodd;stroke:none;filter:url(#filter3846)" inkscape:connector-curvature="0" class="hGRtqDbX_63"></path>
    <path d="m 67.063792,163.13345 a 3.3867645,4.7686653 0 0 0 6.773529,0 3.3867645,4.7686653 0 1 0 -6.773529,0 z" id="path4382" style="opacity: 0.75; fill: none; fill-opacity: 1; fill-rule: evenodd; stroke: rgb(124, 0, 0); stroke-width: 1.09167; stroke-linecap: round; stroke-linejoin: round; stroke-miterlimit: 4; stroke-opacity: 1;" inkscape:connector-curvature="0" class="hGRtqDbX_64"></path>
    <path d="m -296.42857,382.59375 c 2.30993,0.52606 9.94263,2.41673 15.71429,2.85715 -5.4261,-2.12652 -12.94345,-4.07057 -15.71429,-2.85715 z" transform="matrix(-0.96048308,0.00398629,0.0033963,0.81832645,-199.58974,-155.33921)" id="path4386" style="fill:none;fill-opacity:1;fill-rule:evenodd;stroke:none;filter:url(#filter3846)" inkscape:connector-curvature="0" class="hGRtqDbX_65"></path>
    <path d="m -296.42857,382.59375 c 2.30993,0.52606 9.94263,2.41673 15.71429,2.85715 -5.4261,-2.12652 -12.94345,-4.07057 -15.71429,-2.85715 z" transform="matrix(0.67980092,0.67853839,-0.57811107,0.57918675,501.14481,116.64983)" id="path5002" style="fill:none;fill-opacity:1;fill-rule:evenodd;stroke:none;filter:url(#filter3846)" inkscape:connector-curvature="0" class="hGRtqDbX_66"></path>
  </g>
<style data-made-with="vivus-instant">.hGRtqDbX_0{stroke-dasharray:71 73;stroke-dashoffset:72;animation:hGRtqDbX_draw 6666ms linear 0ms forwards;}.hGRtqDbX_1{stroke-dasharray:390 392;stroke-dashoffset:391;animation:hGRtqDbX_draw 6666ms linear 50ms forwards;}.hGRtqDbX_2{stroke-dasharray:541 543;stroke-dashoffset:542;animation:hGRtqDbX_draw 6666ms linear 101ms forwards;}.hGRtqDbX_3{stroke-dasharray:381 383;stroke-dashoffset:382;animation:hGRtqDbX_draw 6666ms linear 151ms forwards;}.hGRtqDbX_4{stroke-dasharray:72 74;stroke-dashoffset:73;animation:hGRtqDbX_draw 6666ms linear 202ms forwards;}.hGRtqDbX_5{stroke-dasharray:167 169;stroke-dashoffset:168;animation:hGRtqDbX_draw 6666ms linear 252ms forwards;}.hGRtqDbX_6{stroke-dasharray:296 298;stroke-dashoffset:297;animation:hGRtqDbX_draw 6666ms linear 303ms forwards;}.hGRtqDbX_7{stroke-dasharray:357 359;stroke-dashoffset:358;animation:hGRtqDbX_draw 6666ms linear 353ms forwards;}.hGRtqDbX_8{stroke-dasharray:295 297;stroke-dashoffset:296;animation:hGRtqDbX_draw 6666ms linear 404ms forwards;}.hGRtqDbX_9{stroke-dasharray:502 504;stroke-dashoffset:503;animation:hGRtqDbX_draw 6666ms linear 454ms forwards;}.hGRtqDbX_10{stroke-dasharray:252 254;stroke-dashoffset:253;animation:hGRtqDbX_draw 6666ms linear 505ms forwards;}.hGRtqDbX_11{stroke-dasharray:34 36;stroke-dashoffset:35;animation:hGRtqDbX_draw 6666ms linear 555ms forwards;}.hGRtqDbX_12{stroke-dasharray:33 35;stroke-dashoffset:34;animation:hGRtqDbX_draw 6666ms linear 606ms forwards;}.hGRtqDbX_13{stroke-dasharray:227 229;stroke-dashoffset:228;animation:hGRtqDbX_draw 6666ms linear 656ms forwards;}.hGRtqDbX_14{stroke-dasharray:71 73;stroke-dashoffset:72;animation:hGRtqDbX_draw 6666ms linear 707ms forwards;}.hGRtqDbX_15{stroke-dasharray:213 215;stroke-dashoffset:214;animation:hGRtqDbX_draw 6666ms linear 757ms forwards;}.hGRtqDbX_16{stroke-dasharray:114 116;stroke-dashoffset:115;animation:hGRtqDbX_draw 6666ms linear 808ms forwards;}.hGRtqDbX_17{stroke-dasharray:65 67;stroke-dashoffset:66;animation:hGRtqDbX_draw 6666ms linear 858ms forwards;}.hGRtqDbX_18{stroke-dasharray:562 564;stroke-dashoffset:563;animation:hGRtqDbX_draw 6666ms linear 909ms forwards;}.hGRtqDbX_19{stroke-dasharray:506 508;stroke-dashoffset:507;animation:hGRtqDbX_draw 6666ms linear 959ms forwards;}.hGRtqDbX_20{stroke-dasharray:50 52;stroke-dashoffset:51;animation:hGRtqDbX_draw 6666ms linear 1010ms forwards;}.hGRtqDbX_21{stroke-dasharray:39 41;stroke-dashoffset:40;animation:hGRtqDbX_draw 6666ms linear 1060ms forwards;}.hGRtqDbX_22{stroke-dasharray:143 145;stroke-dashoffset:144;animation:hGRtqDbX_draw 6666ms linear 1111ms forwards;}.hGRtqDbX_23{stroke-dasharray:71 73;stroke-dashoffset:72;animation:hGRtqDbX_draw 6666ms linear 1161ms forwards;}.hGRtqDbX_24{stroke-dasharray:72 74;stroke-dashoffset:73;animation:hGRtqDbX_draw 6666ms linear 1212ms forwards;}.hGRtqDbX_25{stroke-dasharray:15 17;stroke-dashoffset:16;animation:hGRtqDbX_draw 6666ms linear 1262ms forwards;}.hGRtqDbX_26{stroke-dasharray:34 36;stroke-dashoffset:35;animation:hGRtqDbX_draw 6666ms linear 1313ms forwards;}.hGRtqDbX_27{stroke-dasharray:6 8;stroke-dashoffset:7;animation:hGRtqDbX_draw 6666ms linear 1363ms forwards;}.hGRtqDbX_28{stroke-dasharray:34 36;stroke-dashoffset:35;animation:hGRtqDbX_draw 6666ms linear 1414ms forwards;}.hGRtqDbX_29{stroke-dasharray:84 86;stroke-dashoffset:85;animation:hGRtqDbX_draw 6666ms linear 1464ms forwards;}.hGRtqDbX_30{stroke-dasharray:72 74;stroke-dashoffset:73;animation:hGRtqDbX_draw 6666ms linear 1515ms forwards;}.hGRtqDbX_31{stroke-dasharray:34 36;stroke-dashoffset:35;animation:hGRtqDbX_draw 6666ms linear 1565ms forwards;}.hGRtqDbX_32{stroke-dasharray:34 36;stroke-dashoffset:35;animation:hGRtqDbX_draw 6666ms linear 1616ms forwards;}.hGRtqDbX_33{stroke-dasharray:29 31;stroke-dashoffset:30;animation:hGRtqDbX_draw 6666ms linear 1666ms forwards;}.hGRtqDbX_34{stroke-dasharray:29 31;stroke-dashoffset:30;animation:hGRtqDbX_draw 6666ms linear 1717ms forwards;}.hGRtqDbX_35{stroke-dasharray:243 245;stroke-dashoffset:244;animation:hGRtqDbX_draw 6666ms linear 1767ms forwards;}.hGRtqDbX_36{stroke-dasharray:94 96;stroke-dashoffset:95;animation:hGRtqDbX_draw 6666ms linear 1818ms forwards;}.hGRtqDbX_37{stroke-dasharray:41 43;stroke-dashoffset:42;animation:hGRtqDbX_draw 6666ms linear 1868ms forwards;}.hGRtqDbX_38{stroke-dasharray:41 43;stroke-dashoffset:42;animation:hGRtqDbX_draw 6666ms linear 1919ms forwards;}.hGRtqDbX_39{stroke-dasharray:41 43;stroke-dashoffset:42;animation:hGRtqDbX_draw 6666ms linear 1969ms forwards;}.hGRtqDbX_40{stroke-dasharray:270 272;stroke-dashoffset:271;animation:hGRtqDbX_draw 6666ms linear 2020ms forwards;}.hGRtqDbX_41{stroke-dasharray:326 328;stroke-dashoffset:327;animation:hGRtqDbX_draw 6666ms linear 2070ms forwards;}.hGRtqDbX_42{stroke-dasharray:327 329;stroke-dashoffset:328;animation:hGRtqDbX_draw 6666ms linear 2121ms forwards;}.hGRtqDbX_43{stroke-dasharray:270 272;stroke-dashoffset:271;animation:hGRtqDbX_draw 6666ms linear 2171ms forwards;}.hGRtqDbX_44{stroke-dasharray:413 415;stroke-dashoffset:414;animation:hGRtqDbX_draw 6666ms linear 2222ms forwards;}.hGRtqDbX_45{stroke-dasharray:362 364;stroke-dashoffset:363;animation:hGRtqDbX_draw 6666ms linear 2272ms forwards;}.hGRtqDbX_46{stroke-dasharray:409 411;stroke-dashoffset:410;animation:hGRtqDbX_draw 6666ms linear 2323ms forwards;}.hGRtqDbX_47{stroke-dasharray:379 381;stroke-dashoffset:380;animation:hGRtqDbX_draw 6666ms linear 2373ms forwards;}.hGRtqDbX_48{stroke-dasharray:284 286;stroke-dashoffset:285;animation:hGRtqDbX_draw 6666ms linear 2424ms forwards;}.hGRtqDbX_49{stroke-dasharray:149 151;stroke-dashoffset:150;animation:hGRtqDbX_draw 6666ms linear 2474ms forwards;}.hGRtqDbX_50{stroke-dasharray:232 234;stroke-dashoffset:233;animation:hGRtqDbX_draw 6666ms linear 2525ms forwards;}.hGRtqDbX_51{stroke-dasharray:245 247;stroke-dashoffset:246;animation:hGRtqDbX_draw 6666ms linear 2575ms forwards;}.hGRtqDbX_52{stroke-dasharray:282 284;stroke-dashoffset:283;animation:hGRtqDbX_draw 6666ms linear 2626ms forwards;}.hGRtqDbX_53{stroke-dasharray:23 25;stroke-dashoffset:24;animation:hGRtqDbX_draw 6666ms linear 2676ms forwards;}.hGRtqDbX_54{stroke-dasharray:23 25;stroke-dashoffset:24;animation:hGRtqDbX_draw 6666ms linear 2727ms forwards;}.hGRtqDbX_55{stroke-dasharray:24 26;stroke-dashoffset:25;animation:hGRtqDbX_draw 6666ms linear 2777ms forwards;}.hGRtqDbX_56{stroke-dasharray:312 314;stroke-dashoffset:313;animation:hGRtqDbX_draw 6666ms linear 2828ms forwards;}.hGRtqDbX_57{stroke-dasharray:39 41;stroke-dashoffset:40;animation:hGRtqDbX_draw 6666ms linear 2878ms forwards;}.hGRtqDbX_58{stroke-dasharray:1953 1955;stroke-dashoffset:1954;animation:hGRtqDbX_draw 6666ms linear 2929ms forwards;}.hGRtqDbX_59{stroke-dasharray:33 35;stroke-dashoffset:34;animation:hGRtqDbX_draw 6666ms linear 2979ms forwards;}.hGRtqDbX_60{stroke-dasharray:33 35;stroke-dashoffset:34;animation:hGRtqDbX_draw 6666ms linear 3030ms forwards;}.hGRtqDbX_61{stroke-dasharray:22 24;stroke-dashoffset:23;animation:hGRtqDbX_draw 6666ms linear 3080ms forwards;}.hGRtqDbX_62{stroke-dasharray:33 35;stroke-dashoffset:34;animation:hGRtqDbX_draw 6666ms linear 3131ms forwards;}.hGRtqDbX_63{stroke-dasharray:33 35;stroke-dashoffset:34;animation:hGRtqDbX_draw 6666ms linear 3181ms forwards;}.hGRtqDbX_64{stroke-dasharray:26 28;stroke-dashoffset:27;animation:hGRtqDbX_draw 6666ms linear 3232ms forwards;}.hGRtqDbX_65{stroke-dasharray:33 35;stroke-dashoffset:34;animation:hGRtqDbX_draw 6666ms linear 3282ms forwards;}.hGRtqDbX_66{stroke-dasharray:33 35;stroke-dashoffset:34;animation:hGRtqDbX_draw 6666ms linear 3333ms forwards;}@keyframes hGRtqDbX_draw{100%{stroke-dashoffset:0;}}@keyframes hGRtqDbX_fade{0%{stroke-opacity:1;}97.1830985915493%{stroke-opacity:1;}100%{stroke-opacity:0;}}</style></svg>
